<svg width="34" height="34" viewBox="0 0 34 34" fill="none" xmlns="http://www.w3.org/2000/svg">
<path d="M24.5625 9.09375H9.4375C8.98166 9.09375 8.54449 9.27483 8.22216 9.59716C7.89983 9.91949 7.71875 10.3567 7.71875 10.8125V23.1875C7.71875 23.6433 7.89983 24.0805 8.22216 24.4028C8.54449 24.7252 8.98166 24.9062 9.4375 24.9062H24.5625C25.0183 24.9062 25.4555 24.7252 25.7778 24.4028C26.1002 24.0805 26.2812 23.6433 26.2812 23.1875V10.8125C26.2812 10.3567 26.1002 9.91949 25.7778 9.59716C25.4555 9.27483 25.0183 9.09375 24.5625 9.09375ZM9.78125 11.1562H12.5312V22.8438H9.78125V11.1562ZM24.2188 22.8438H14.5938V11.1562H24.2188V22.8438Z" fill="#9DA3A9"/>
</svg>
