<svg width="22" height="22" viewBox="0 0 22 22" fill="none" xmlns="http://www.w3.org/2000/svg">
<g id="ChatCircleDots">
<path id="Vector" d="M10.3127 11C10.3127 11.272 10.232 11.5378 10.0809 11.7639C9.92985 11.9901 9.71511 12.1663 9.46386 12.2704C9.21261 12.3744 8.93614 12.4017 8.66942 12.3486C8.40269 12.2956 8.15769 12.1646 7.9654 11.9723C7.7731 11.78 7.64214 11.535 7.58909 11.2683C7.53603 11.0016 7.56326 10.7251 7.66733 10.4738C7.7714 10.2226 7.94764 10.0078 8.17376 9.85676C8.39988 9.70567 8.66572 9.62503 8.93767 9.62503C9.30234 9.62503 9.65208 9.76989 9.90994 10.0278C10.1678 10.2856 10.3127 10.6354 10.3127 11ZM13.0627 9.62503C12.7907 9.62503 12.5249 9.70567 12.2988 9.85676C12.0726 10.0078 11.8964 10.2226 11.7923 10.4738C11.6883 10.7251 11.661 11.0016 11.7141 11.2683C11.7671 11.535 11.8981 11.78 12.0904 11.9723C12.2827 12.1646 12.5277 12.2956 12.7944 12.3486C13.0611 12.4017 13.3376 12.3744 13.5889 12.2704C13.8401 12.1663 14.0549 11.9901 14.2059 11.7639C14.357 11.5378 14.4377 11.272 14.4377 11C14.4377 10.6354 14.2928 10.2856 14.0349 10.0278C13.7771 9.76989 13.4273 9.62503 13.0627 9.62503ZM20.2814 11C20.2818 12.5898 19.8737 14.1531 19.0964 15.5399C18.3191 16.9267 17.1986 18.0906 15.8423 18.9201C14.4859 19.7495 12.9393 20.2166 11.3506 20.2766C9.76197 20.3367 8.1845 19.9876 6.76946 19.2629L3.98251 20.1953C3.67912 20.2976 3.3532 20.3131 3.04148 20.24C2.72976 20.167 2.44464 20.0083 2.21825 19.7819C1.99187 19.5556 1.83321 19.2704 1.76017 18.9587C1.68713 18.647 1.70261 18.3211 1.80485 18.0177L2.73384 15.2307C2.09592 13.9812 1.74958 12.6032 1.72087 11.2006C1.69215 9.79788 1.98182 8.40694 2.56807 7.13232C3.15432 5.8577 4.02191 4.73257 5.10561 3.84154C6.18931 2.9505 7.46091 2.31674 8.82481 1.98791C10.1887 1.65907 11.6094 1.64372 12.9801 1.94301C14.3508 2.2423 15.6358 2.84844 16.7385 3.71585C17.8412 4.58327 18.7329 5.68938 19.3465 6.95104C19.9602 8.21269 20.2798 9.59705 20.2814 11ZM18.2189 11C18.2185 9.89276 17.9634 8.80043 17.4732 7.80754C16.9831 6.81465 16.2712 5.94781 15.3925 5.27408C14.5138 4.60036 13.4918 4.1378 12.4058 3.9222C11.3197 3.7066 10.1986 3.74373 9.12915 4.03072C8.05972 4.31771 7.07064 4.84687 6.23844 5.57726C5.40623 6.30765 4.75319 7.2197 4.32985 8.24284C3.90651 9.26599 3.72421 10.3728 3.79706 11.4777C3.8699 12.5825 4.19593 13.6558 4.74993 14.6146C4.82315 14.741 4.86868 14.8815 4.8835 15.0268C4.89831 15.1722 4.88208 15.319 4.83587 15.4576L3.98251 18.0177L6.54259 17.1643C6.6479 17.1292 6.75815 17.1113 6.86915 17.111C7.05027 17.1114 7.22811 17.1594 7.38478 17.2503C8.48222 17.8853 9.72756 18.22 10.9955 18.2209C12.2634 18.2217 13.5092 17.8885 14.6074 17.255C15.7057 16.6214 16.6177 15.7097 17.2517 14.6116C17.8857 13.5136 18.2193 12.2679 18.2189 11Z" fill="#5F666C"/>
</g>
</svg>
