<svg width="145" height="39" viewBox="0 0 145 39" fill="none" xmlns="http://www.w3.org/2000/svg">
<g filter="url(#filter0_d_1_2084)">
<rect y="0.5" width="145" height="37" rx="12" fill="white" shape-rendering="crispEdges"/>
<rect x="0.5" y="1" width="144" height="36" rx="11.5" stroke="black" stroke-opacity="0.08" shape-rendering="crispEdges"/>
<path d="M30.0312 20.6875V24.625C30.0312 24.998 29.8831 25.3556 29.6194 25.6194C29.3556 25.8831 28.998 26.0312 28.625 26.0312H17.375C17.002 26.0312 16.6444 25.8831 16.3806 25.6194C16.1169 25.3556 15.9688 24.998 15.9688 24.625V20.6875C15.9688 20.4637 16.0576 20.2491 16.2159 20.0909C16.3741 19.9326 16.5887 19.8438 16.8125 19.8438C17.0363 19.8438 17.2509 19.9326 17.4091 20.0909C17.5674 20.2491 17.6562 20.4637 17.6562 20.6875V24.3438H28.3438V20.6875C28.3438 20.4637 28.4326 20.2491 28.5909 20.0909C28.7491 19.9326 28.9637 19.8438 29.1875 19.8438C29.4113 19.8438 29.6259 19.9326 29.7841 20.0909C29.9424 20.2491 30.0312 20.4637 30.0312 20.6875ZM22.403 21.2845C22.4814 21.3631 22.5746 21.4255 22.6771 21.4681C22.7797 21.5107 22.8897 21.5326 23.0007 21.5326C23.1118 21.5326 23.2217 21.5107 23.3243 21.4681C23.4268 21.4255 23.52 21.3631 23.5984 21.2845L26.4109 18.472C26.5694 18.3134 26.6584 18.0985 26.6584 17.8743C26.6584 17.6501 26.5694 17.4351 26.4109 17.2766C26.2524 17.1181 26.0374 17.0291 25.8132 17.0291C25.589 17.0291 25.3741 17.1181 25.2155 17.2766L23.8438 18.6484V12.8125C23.8438 12.5887 23.7549 12.3741 23.5966 12.2159C23.4384 12.0576 23.2238 11.9688 23 11.9688C22.7762 11.9688 22.5616 12.0576 22.4034 12.2159C22.2451 12.3741 22.1562 12.5887 22.1562 12.8125V18.6484L20.7845 17.278C20.6259 17.1195 20.411 17.0305 20.1868 17.0305C19.9626 17.0305 19.7476 17.1195 19.5891 17.278C19.4306 17.4366 19.3416 17.6515 19.3416 17.8757C19.3416 18.0999 19.4306 18.3149 19.5891 18.4734L22.403 21.2845Z" fill="#343330"/>
<path d="M39.6327 24.5V14.3182H46.2549V15.8643H41.4772V18.6286H45.9118V20.1747H41.4772V22.9538H46.2946V24.5H39.6327ZM49.3187 16.8636L50.8598 19.6825L52.4259 16.8636H54.33L52.0282 20.6818L54.3698 24.5H52.4756L50.8598 21.7507L49.259 24.5H47.3499L49.6766 20.6818L47.4096 16.8636H49.3187ZM55.5121 27.3636V16.8636H57.2819V18.1264H57.3864C57.4792 17.9408 57.6101 17.7436 57.7791 17.5348C57.9481 17.3227 58.1768 17.142 58.4652 16.9929C58.7535 16.8404 59.1214 16.7642 59.5689 16.7642C60.1588 16.7642 60.6908 16.915 61.1648 17.2166C61.642 17.5149 62.0199 17.9574 62.2983 18.544C62.58 19.1274 62.7209 19.8433 62.7209 20.6918C62.7209 21.5303 62.5833 22.2429 62.3082 22.8295C62.0331 23.4162 61.6586 23.8636 61.1846 24.1719C60.7107 24.4801 60.1738 24.6342 59.5739 24.6342C59.1364 24.6342 58.7734 24.5613 58.4851 24.4155C58.1967 24.2696 57.9647 24.094 57.7891 23.8885C57.6167 23.6797 57.4825 23.4825 57.3864 23.2969H57.3118V27.3636H55.5121ZM57.277 20.6818C57.277 21.1757 57.3466 21.6082 57.4858 21.9794C57.6283 22.3506 57.8321 22.6406 58.0973 22.8494C58.3658 23.0549 58.6906 23.1577 59.0717 23.1577C59.4694 23.1577 59.8025 23.0516 60.071 22.8395C60.3395 22.6241 60.5417 22.3307 60.6775 21.9595C60.8168 21.585 60.8864 21.1591 60.8864 20.6818C60.8864 20.2079 60.8184 19.7869 60.6825 19.419C60.5466 19.0511 60.3444 18.7628 60.076 18.554C59.8075 18.3452 59.4728 18.2408 59.0717 18.2408C58.6873 18.2408 58.3608 18.3419 58.0923 18.544C57.8239 18.7462 57.62 19.0296 57.4808 19.3942C57.3449 19.7588 57.277 20.188 57.277 20.6818ZM67.383 24.6491C66.6373 24.6491 65.991 24.4851 65.4441 24.157C64.8972 23.8288 64.473 23.3698 64.1714 22.7798C63.8731 22.1899 63.7239 21.5005 63.7239 20.7116C63.7239 19.9228 63.8731 19.2318 64.1714 18.6385C64.473 18.0452 64.8972 17.5845 65.4441 17.2564C65.991 16.9283 66.6373 16.7642 67.383 16.7642C68.1288 16.7642 68.7751 16.9283 69.322 17.2564C69.8688 17.5845 70.2914 18.0452 70.5897 18.6385C70.8913 19.2318 71.0421 19.9228 71.0421 20.7116C71.0421 21.5005 70.8913 22.1899 70.5897 22.7798C70.2914 23.3698 69.8688 23.8288 69.322 24.157C68.7751 24.4851 68.1288 24.6491 67.383 24.6491ZM67.393 23.2074C67.7973 23.2074 68.1354 23.0964 68.4072 22.8743C68.679 22.6489 68.8811 22.3473 69.0137 21.9695C69.1496 21.5916 69.2175 21.1707 69.2175 20.7067C69.2175 20.2393 69.1496 19.8168 69.0137 19.4389C68.8811 19.0578 68.679 18.7545 68.4072 18.5291C68.1354 18.3037 67.7973 18.1911 67.393 18.1911C66.9787 18.1911 66.634 18.3037 66.3589 18.5291C66.0871 18.7545 65.8833 19.0578 65.7474 19.4389C65.6148 19.8168 65.5485 20.2393 65.5485 20.7067C65.5485 21.1707 65.6148 21.5916 65.7474 21.9695C65.8833 22.3473 66.0871 22.6489 66.3589 22.8743C66.634 23.0964 66.9787 23.2074 67.393 23.2074ZM72.3596 24.5V16.8636H74.1047V18.1364H74.1842C74.3234 17.6955 74.5621 17.3558 74.9001 17.1172C75.2415 16.8752 75.6309 16.7543 76.0684 16.7543C76.1679 16.7543 76.2789 16.7592 76.4015 16.7692C76.5275 16.7758 76.6319 16.7874 76.7148 16.804V18.4595C76.6385 18.433 76.5175 18.4098 76.3518 18.3899C76.1894 18.3667 76.032 18.3551 75.8795 18.3551C75.5514 18.3551 75.2564 18.4264 74.9946 18.5689C74.7361 18.7081 74.5322 18.902 74.3831 19.1506C74.2339 19.3991 74.1594 19.6858 74.1594 20.0107V24.5H72.3596ZM81.9238 16.8636V18.2557H77.5339V16.8636H81.9238ZM78.6177 15.0341H80.4174V22.2031C80.4174 22.4451 80.4539 22.6307 80.5268 22.7599C80.603 22.8859 80.7024 22.9721 80.8251 23.0185C80.9477 23.0649 81.0836 23.0881 81.2327 23.0881C81.3454 23.0881 81.4482 23.0798 81.541 23.0632C81.6371 23.0466 81.71 23.0317 81.7597 23.0185L82.063 24.4254C81.9669 24.4586 81.8293 24.495 81.6504 24.5348C81.4747 24.5746 81.2593 24.5978 81.004 24.6044C80.5533 24.6177 80.1473 24.5497 79.786 24.4006C79.4247 24.2481 79.138 24.0128 78.9259 23.6946C78.7171 23.3764 78.6144 22.9787 78.6177 22.5014V15.0341ZM90.2948 16.8636V18.2557H85.9049V16.8636H90.2948ZM86.9887 15.0341H88.7884V22.2031C88.7884 22.4451 88.8249 22.6307 88.8978 22.7599C88.974 22.8859 89.0734 22.9721 89.1961 23.0185C89.3187 23.0649 89.4546 23.0881 89.6038 23.0881C89.7164 23.0881 89.8192 23.0798 89.912 23.0632C90.0081 23.0466 90.081 23.0317 90.1307 23.0185L90.434 24.4254C90.3379 24.4586 90.2003 24.495 90.0214 24.5348C89.8457 24.5746 89.6303 24.5978 89.3751 24.6044C88.9243 24.6177 88.5183 24.5497 88.157 24.4006C87.7958 24.2481 87.5091 24.0128 87.2969 23.6946C87.0881 23.3764 86.9854 22.9787 86.9887 22.5014V15.0341ZM94.8389 24.6491C94.0931 24.6491 93.4468 24.4851 92.9 24.157C92.3531 23.8288 91.9289 23.3698 91.6272 22.7798C91.3289 22.1899 91.1798 21.5005 91.1798 20.7116C91.1798 19.9228 91.3289 19.2318 91.6272 18.6385C91.9289 18.0452 92.3531 17.5845 92.9 17.2564C93.4468 16.9283 94.0931 16.7642 94.8389 16.7642C95.5846 16.7642 96.2309 16.9283 96.7778 17.2564C97.3247 17.5845 97.7473 18.0452 98.0456 18.6385C98.3472 19.2318 98.498 19.9228 98.498 20.7116C98.498 21.5005 98.3472 22.1899 98.0456 22.7798C97.7473 23.3698 97.3247 23.8288 96.7778 24.157C96.2309 24.4851 95.5846 24.6491 94.8389 24.6491ZM94.8488 23.2074C95.2532 23.2074 95.5913 23.0964 95.863 22.8743C96.1348 22.6489 96.337 22.3473 96.4696 21.9695C96.6055 21.5916 96.6734 21.1707 96.6734 20.7067C96.6734 20.2393 96.6055 19.8168 96.4696 19.4389C96.337 19.0578 96.1348 18.7545 95.863 18.5291C95.5913 18.3037 95.2532 18.1911 94.8488 18.1911C94.4345 18.1911 94.0898 18.3037 93.8147 18.5291C93.543 18.7545 93.3391 19.0578 93.2032 19.4389C93.0707 19.8168 93.0044 20.2393 93.0044 20.7067C93.0044 21.1707 93.0707 21.5916 93.2032 21.9695C93.3391 22.3473 93.543 22.6489 93.8147 22.8743C94.0898 23.0964 94.4345 23.2074 94.8488 23.2074ZM104.187 24.6094C103.885 24.6094 103.627 24.5033 103.411 24.2912C103.196 24.0791 103.09 23.8205 103.093 23.5156C103.09 23.2173 103.196 22.9621 103.411 22.75C103.627 22.5379 103.885 22.4318 104.187 22.4318C104.478 22.4318 104.732 22.5379 104.947 22.75C105.166 22.9621 105.277 23.2173 105.281 23.5156C105.277 23.7178 105.224 23.9018 105.121 24.0675C105.022 24.2332 104.889 24.3658 104.724 24.4652C104.561 24.5613 104.382 24.6094 104.187 24.6094ZM109.763 24.6342C109.163 24.6342 108.626 24.4801 108.152 24.1719C107.678 23.8636 107.303 23.4162 107.028 22.8295C106.753 22.2429 106.615 21.5303 106.615 20.6918C106.615 19.8433 106.755 19.1274 107.033 18.544C107.315 17.9574 107.694 17.5149 108.172 17.2166C108.649 16.915 109.181 16.7642 109.767 16.7642C110.215 16.7642 110.583 16.8404 110.871 16.9929C111.16 17.142 111.388 17.3227 111.557 17.5348C111.726 17.7436 111.857 17.9408 111.95 18.1264H112.025V14.3182H113.829V24.5H112.059V23.2969H111.95C111.857 23.4825 111.723 23.6797 111.547 23.8885C111.372 24.094 111.14 24.2696 110.851 24.4155C110.563 24.5613 110.2 24.6342 109.763 24.6342ZM110.265 23.1577C110.646 23.1577 110.971 23.0549 111.239 22.8494C111.508 22.6406 111.711 22.3506 111.851 21.9794C111.99 21.6082 112.059 21.1757 112.059 20.6818C112.059 20.188 111.99 19.7588 111.851 19.3942C111.715 19.0296 111.513 18.7462 111.244 18.544C110.979 18.3419 110.652 18.2408 110.265 18.2408C109.864 18.2408 109.529 18.3452 109.26 18.554C108.992 18.7628 108.79 19.0511 108.654 19.419C108.518 19.7869 108.45 20.2079 108.45 20.6818C108.45 21.1591 108.518 21.585 108.654 21.9595C108.793 22.3307 108.997 22.6241 109.265 22.8395C109.537 23.0516 109.87 23.1577 110.265 23.1577ZM118.868 24.6491C118.122 24.6491 117.476 24.4851 116.929 24.157C116.382 23.8288 115.958 23.3698 115.656 22.7798C115.358 22.1899 115.209 21.5005 115.209 20.7116C115.209 19.9228 115.358 19.2318 115.656 18.6385C115.958 18.0452 116.382 17.5845 116.929 17.2564C117.476 16.9283 118.122 16.7642 118.868 16.7642C119.614 16.7642 120.26 16.9283 120.807 17.2564C121.354 17.5845 121.776 18.0452 122.075 18.6385C122.376 19.2318 122.527 19.9228 122.527 20.7116C122.527 21.5005 122.376 22.1899 122.075 22.7798C121.776 23.3698 121.354 23.8288 120.807 24.157C120.26 24.4851 119.614 24.6491 118.868 24.6491ZM118.878 23.2074C119.282 23.2074 119.62 23.0964 119.892 22.8743C120.164 22.6489 120.366 22.3473 120.499 21.9695C120.635 21.5916 120.703 21.1707 120.703 20.7067C120.703 20.2393 120.635 19.8168 120.499 19.4389C120.366 19.0578 120.164 18.7545 119.892 18.5291C119.62 18.3037 119.282 18.1911 118.878 18.1911C118.464 18.1911 118.119 18.3037 117.844 18.5291C117.572 18.7545 117.368 19.0578 117.232 19.4389C117.1 19.8168 117.034 20.2393 117.034 20.7067C117.034 21.1707 117.1 21.5916 117.232 21.9695C117.368 22.3473 117.572 22.6489 117.844 22.8743C118.119 23.0964 118.464 23.2074 118.878 23.2074ZM127.176 24.6491C126.413 24.6491 125.759 24.4818 125.212 24.147C124.668 23.8123 124.249 23.3499 123.954 22.7599C123.662 22.1667 123.517 21.4839 123.517 20.7116C123.517 19.9361 123.666 19.2517 123.964 18.6584C124.262 18.0618 124.683 17.5978 125.227 17.2663C125.774 16.9316 126.42 16.7642 127.166 16.7642C127.785 16.7642 128.334 16.8786 128.811 17.1072C129.292 17.3326 129.675 17.6525 129.96 18.0668C130.245 18.4777 130.407 18.9583 130.447 19.5085H128.727C128.657 19.1406 128.491 18.834 128.23 18.5888C127.971 18.3402 127.625 18.2159 127.191 18.2159C126.823 18.2159 126.499 18.3153 126.221 18.5142C125.943 18.7098 125.726 18.9915 125.57 19.3594C125.417 19.7273 125.341 20.1681 125.341 20.6818C125.341 21.2022 125.417 21.6496 125.57 22.0241C125.722 22.3954 125.936 22.6821 126.211 22.8842C126.49 23.0831 126.816 23.1825 127.191 23.1825C127.456 23.1825 127.693 23.1328 127.901 23.0334C128.114 22.9306 128.291 22.7831 128.433 22.5909C128.576 22.3987 128.674 22.165 128.727 21.8899H130.447C130.404 22.4302 130.245 22.9091 129.97 23.3267C129.695 23.741 129.32 24.0658 128.846 24.3011C128.372 24.5331 127.815 24.6491 127.176 24.6491Z" fill="#393E43"/>
</g>
<defs>
<filter id="filter0_d_1_2084" x="0" y="0.5" width="145" height="38" filterUnits="userSpaceOnUse" color-interpolation-filters="sRGB">
<feFlood flood-opacity="0" result="BackgroundImageFix"/>
<feColorMatrix in="SourceAlpha" type="matrix" values="0 0 0 0 0 0 0 0 0 0 0 0 0 0 0 0 0 0 127 0" result="hardAlpha"/>
<feOffset dy="1"/>
<feComposite in2="hardAlpha" operator="out"/>
<feColorMatrix type="matrix" values="0 0 0 0 0 0 0 0 0 0 0 0 0 0 0 0 0 0 0.05 0"/>
<feBlend mode="normal" in2="BackgroundImageFix" result="effect1_dropShadow_1_2084"/>
<feBlend mode="normal" in="SourceGraphic" in2="effect1_dropShadow_1_2084" result="shape"/>
</filter>
</defs>
</svg>
