<svg width="22" height="22" viewBox="0 0 22 22" fill="none" xmlns="http://www.w3.org/2000/svg">
<g id="Gear">
<path id="Vector" d="M10.9998 6.53125C10.116 6.53125 9.25199 6.79333 8.5171 7.28437C7.78222 7.7754 7.20945 8.47332 6.87122 9.28988C6.53299 10.1064 6.4445 11.005 6.61692 11.8718C6.78935 12.7387 7.21496 13.5349 7.83992 14.1599C8.46489 14.7848 9.26114 15.2105 10.128 15.3829C10.9949 15.5553 11.8934 15.4668 12.7099 15.1286C13.5265 14.7904 14.2244 14.2176 14.7154 13.4827C15.2065 12.7478 15.4686 11.8838 15.4686 11C15.4672 9.81523 14.9959 8.67938 14.1582 7.84162C13.3204 7.00386 12.1846 6.53261 10.9998 6.53125ZM10.9998 13.4062C10.5239 13.4062 10.0587 13.2651 9.66297 13.0007C9.26726 12.7363 8.95885 12.3605 8.77672 11.9208C8.5946 11.4811 8.54695 10.9973 8.63979 10.5306C8.73264 10.0638 8.96181 9.63504 9.29833 9.29852C9.63485 8.962 10.0636 8.73283 10.5304 8.63998C10.9971 8.54714 11.481 8.59479 11.9206 8.77691C12.3603 8.95903 12.7361 9.26745 13.0005 9.66315C13.2649 10.0589 13.4061 10.5241 13.4061 11C13.4061 11.6382 13.1525 12.2502 12.7013 12.7015C12.25 13.1527 11.638 13.4062 10.9998 13.4062ZM18.9061 11.0679V10.9321L20.1092 9.42734C20.2102 9.30126 20.2801 9.15321 20.3134 8.99513C20.3467 8.83705 20.3424 8.67337 20.3008 8.51726C20.0837 7.69837 19.7592 6.9118 19.3357 6.17804C19.2542 6.03812 19.1408 5.91938 19.0048 5.83144C18.8687 5.7435 18.7139 5.68883 18.5529 5.67187L16.6382 5.45703L16.5428 5.36164L16.3279 3.44609C16.3108 3.28516 16.2561 3.13052 16.1682 2.99466C16.0802 2.85881 15.9616 2.74555 15.8218 2.66406C15.0879 2.23926 14.3011 1.91359 13.4817 1.69554C13.3254 1.65458 13.1618 1.6509 13.0038 1.68478C12.8459 1.71867 12.6982 1.78917 12.5725 1.89062L11.0677 3.09375H10.9319L9.42715 1.89062C9.30107 1.78963 9.15302 1.71967 8.99494 1.68638C8.83686 1.65309 8.67318 1.65741 8.51707 1.69898C7.69797 1.91744 6.91139 2.2434 6.17785 2.66836C6.03848 2.74951 5.92008 2.86223 5.83217 2.99745C5.74426 3.13267 5.68929 3.28663 5.67168 3.44695L5.45684 5.36164L5.36145 5.45703L3.4459 5.67187C3.28498 5.68896 3.13033 5.74369 2.99447 5.83162C2.85862 5.91956 2.74536 6.03823 2.66387 6.17804C2.24026 6.91204 1.91575 7.6989 1.69879 8.51812C1.65736 8.6741 1.65312 8.83762 1.68641 8.99554C1.71969 9.15345 1.78957 9.30135 1.89043 9.42734L3.09356 10.9321V11.0679L1.89043 12.5727C1.78944 12.6987 1.71948 12.8468 1.68619 13.0049C1.65291 13.1629 1.65722 13.3266 1.69879 13.4827C1.91753 14.3019 2.24377 15.0885 2.66903 15.8219C2.7501 15.9612 2.86268 16.0796 2.99774 16.1675C3.13281 16.2554 3.28659 16.3104 3.44676 16.3281L5.36145 16.5412L5.45684 16.6366L5.67168 18.5539C5.68877 18.7148 5.7435 18.8695 5.83143 19.0053C5.91937 19.1412 6.03804 19.2544 6.17785 19.3359C6.91167 19.7607 7.69855 20.0864 8.51793 20.3045C8.67417 20.3454 8.83785 20.3491 8.99578 20.3152C9.15371 20.2813 9.30146 20.2108 9.42715 20.1094L10.9319 18.9062H11.0677L12.5725 20.1094C12.6985 20.2104 12.8466 20.2803 13.0047 20.3136C13.1627 20.3469 13.3264 20.3426 13.4825 20.301C14.3014 20.0839 15.088 19.7594 15.8218 19.3359C15.9615 19.255 16.0802 19.1423 16.1684 19.0071C16.2566 18.8719 16.3119 18.7178 16.3297 18.5573L16.5428 16.6427L16.6382 16.5473L18.5537 16.3281C18.7142 16.3103 18.8683 16.2551 19.0035 16.1669C19.1387 16.0787 19.2513 15.9599 19.3323 15.8202C19.7571 15.0864 20.0828 14.2995 20.3008 13.4802C20.342 13.3244 20.3461 13.1612 20.3128 13.0036C20.2795 12.846 20.2098 12.6984 20.1092 12.5727L18.9061 11.0679ZM16.8332 10.6477C16.847 10.8823 16.847 11.1176 16.8332 11.3523C16.8179 11.6075 16.8978 11.8592 17.0575 12.0587L18.161 13.438C18.0568 13.7464 17.9325 14.0475 17.7889 14.3395L16.0332 14.5346C15.779 14.5637 15.5447 14.6862 15.3757 14.8784C15.2196 15.0542 15.0532 15.2207 14.8773 15.3768C14.6851 15.5457 14.5626 15.78 14.5336 16.0342L14.3393 17.7891C14.0474 17.9333 13.7462 18.0582 13.4379 18.1629L12.0586 17.0586C11.8755 16.9125 11.6482 16.8331 11.414 16.8334C11.3934 16.8334 11.3728 16.8334 11.3522 16.8334C11.1175 16.8472 10.8822 16.8472 10.6475 16.8334C10.3925 16.8183 10.141 16.8979 9.94106 17.0569L8.56176 18.1612C8.25344 18.057 7.9523 17.9327 7.66028 17.7891L7.4652 16.0334C7.43613 15.7792 7.31362 15.5448 7.12145 15.3759C6.94557 15.2198 6.77913 15.0534 6.62301 14.8775C6.4541 14.6853 6.21978 14.5628 5.96559 14.5337L4.21074 14.3395C4.06652 14.0475 3.94164 13.7464 3.83692 13.438L4.94035 12.0587C5.10008 11.8592 5.18001 11.6075 5.16465 11.3523C5.1509 11.1176 5.1509 10.8823 5.16465 10.6477C5.18001 10.3925 5.10008 10.1408 4.94035 9.94125L3.83864 8.56195C3.9428 8.25363 4.0671 7.95249 4.21074 7.66046L5.96645 7.46539C6.22064 7.43632 6.45496 7.31381 6.62387 7.12164C6.77998 6.94575 6.94642 6.77931 7.12231 6.6232C7.31448 6.45429 7.43699 6.21997 7.46606 5.96578L7.66028 4.21093C7.95226 4.06671 8.2534 3.94183 8.56176 3.83711L9.94106 4.9414C10.141 5.10038 10.3925 5.17994 10.6475 5.16484C10.8822 5.15109 11.1175 5.15109 11.3522 5.16484C11.6072 5.18044 11.8589 5.10082 12.0586 4.9414L13.4379 3.83711C13.7462 3.94183 14.0474 4.06671 14.3393 4.21093L14.5344 5.96664C14.5635 6.22083 14.686 6.45515 14.8782 6.62406C15.0541 6.78017 15.2205 6.94661 15.3766 7.1225C15.5455 7.31466 15.7798 7.43718 16.034 7.46625L17.7889 7.66046C17.9331 7.95244 18.058 8.25359 18.1627 8.56195L17.0593 9.94125C16.8989 10.1405 16.8184 10.3923 16.8332 10.6477Z" fill="#5F666C"/>
</g>
</svg>
