<svg width="97" height="28" viewBox="0 0 97 28" fill="none" xmlns="http://www.w3.org/2000/svg">
<g filter="url(#filter0_i_1_2181)">
<g clip-path="url(#clip0_1_2181)">
<rect width="97" height="28" rx="14" fill="#ECF3FF"/>
<rect x="0.5" y="0.5" width="96" height="27" rx="13.5" stroke="black" stroke-opacity="0.03"/>
<g clip-path="url(#clip1_1_2181)">
<path d="M14.3335 14.6667L14.8565 15.7126C15.0335 16.0666 15.122 16.2436 15.2402 16.397C15.3451 16.5331 15.4671 16.6551 15.6032 16.76C15.7566 16.8782 15.9336 16.9667 16.2876 17.1437L17.3335 17.6667L16.2876 18.1896C15.9336 18.3666 15.7566 18.4551 15.6032 18.5734C15.4671 18.6783 15.3451 18.8003 15.2402 18.9364C15.122 19.0898 15.0335 19.2667 14.8565 19.6207L14.3335 20.6667L13.8105 19.6207C13.6335 19.2667 13.545 19.0898 13.4268 18.9364C13.3219 18.8003 13.1999 18.6783 13.0638 18.5734C12.9104 18.4551 12.7334 18.3666 12.3794 18.1896L11.3335 17.6667L12.3794 17.1437C12.7334 16.9667 12.9104 16.8782 13.0638 16.76C13.1999 16.6551 13.3219 16.5331 13.4268 16.397C13.545 16.2436 13.6335 16.0666 13.8105 15.7126L14.3335 14.6667Z" stroke="#2E74E7" stroke-width="1.5" stroke-linecap="round" stroke-linejoin="round"/>
<path d="M20.0002 7.33334L20.7859 9.37629C20.9739 9.86511 21.0679 10.1095 21.2141 10.3151C21.3437 10.4973 21.5029 10.6565 21.6851 10.7861C21.8907 10.9323 22.1351 11.0263 22.6239 11.2143L24.6668 12L22.6239 12.7858C22.1351 12.9738 21.8907 13.0678 21.6851 13.214C21.5029 13.3435 21.3437 13.5027 21.2141 13.6849C21.0679 13.8905 20.9739 14.1349 20.7859 14.6237L20.0002 16.6667L19.2144 14.6237C19.0264 14.1349 18.9324 13.8905 18.7862 13.6849C18.6567 13.5027 18.4975 13.3435 18.3153 13.214C18.1097 13.0678 17.8653 12.9738 17.3764 12.7858L15.3335 12L17.3764 11.2143C17.8653 11.0263 18.1097 10.9323 18.3153 10.7861C18.4975 10.6565 18.6567 10.4973 18.7862 10.3151C18.9324 10.1095 19.0264 9.86511 19.2144 9.37629L20.0002 7.33334Z" stroke="#2E74E7" stroke-width="1.5" stroke-linecap="round" stroke-linejoin="round"/>
</g>
<path d="M37.5723 12.5646C37.4954 12.3153 37.3892 12.0922 37.2538 11.8952C37.1215 11.6952 36.9614 11.5244 36.7737 11.3828C36.589 11.2412 36.3767 11.1351 36.1366 11.0643C35.8966 10.9904 35.6349 10.9535 35.3518 10.9535C34.844 10.9535 34.3916 11.0812 33.9946 11.3366C33.5975 11.5921 33.2852 11.9676 33.0574 12.4631C32.8327 12.9555 32.7204 13.5556 32.7204 14.2635C32.7204 14.9775 32.8327 15.5823 33.0574 16.0778C33.2821 16.5733 33.5945 16.9503 33.9946 17.2088C34.3947 17.4643 34.8594 17.592 35.3887 17.592C35.8689 17.592 36.2843 17.4996 36.6352 17.315C36.9891 17.1303 37.2615 16.8687 37.4523 16.5302C37.6431 16.1886 37.7385 15.7885 37.7385 15.3299L38.1263 15.3899H35.5595V14.0511H39.3958V15.1868C39.3958 15.9962 39.2235 16.6964 38.8788 17.2873C38.5341 17.8782 38.0601 18.3337 37.4569 18.6538C36.8537 18.9708 36.1612 19.1293 35.3795 19.1293C34.5085 19.1293 33.7437 18.9338 33.0851 18.543C32.4296 18.149 31.9171 17.5904 31.5478 16.8672C31.1816 16.1409 30.9985 15.2791 30.9985 14.282C30.9985 13.5187 31.1062 12.837 31.3216 12.2369C31.5401 11.6367 31.8448 11.1274 32.2357 10.7088C32.6265 10.2872 33.0851 9.96709 33.6114 9.74858C34.1377 9.52699 34.7101 9.41619 35.3287 9.41619C35.8519 9.41619 36.3397 9.49313 36.7921 9.64702C37.2446 9.79782 37.6462 10.0133 37.997 10.2933C38.351 10.5734 38.6418 10.9058 38.8696 11.2905C39.0973 11.6752 39.2466 12.0999 39.3174 12.5646H37.5723ZM43.8573 19.1385C43.1464 19.1385 42.5324 18.9908 42.0154 18.6953C41.5014 18.3968 41.1059 17.9751 40.8289 17.4304C40.5519 16.8826 40.4134 16.2378 40.4134 15.4961C40.4134 14.7667 40.5519 14.1265 40.8289 13.5756C41.109 13.0217 41.4999 12.5908 42.0015 12.283C42.5032 11.9722 43.0925 11.8168 43.7696 11.8168C44.2067 11.8168 44.6191 11.8875 45.0068 12.0291C45.3977 12.1676 45.7424 12.383 46.0409 12.6754C46.3425 12.9678 46.5795 13.3402 46.7519 13.7926C46.9242 14.242 47.0104 14.7775 47.0104 15.3991V15.9116H41.1983V14.7852H45.4085C45.4054 14.4651 45.3362 14.1804 45.2007 13.9311C45.0653 13.6787 44.876 13.4802 44.6329 13.3356C44.3929 13.1909 44.1128 13.1186 43.7927 13.1186C43.4511 13.1186 43.151 13.2017 42.8925 13.3679C42.634 13.531 42.4324 13.7464 42.2877 14.0142C42.1462 14.2789 42.0738 14.5697 42.0708 14.8867V15.87C42.0708 16.2824 42.1462 16.6364 42.297 16.9318C42.4478 17.2242 42.6586 17.4489 42.9294 17.6058C43.2003 17.7597 43.5173 17.8366 43.8804 17.8366C44.1236 17.8366 44.3436 17.8028 44.5406 17.7351C44.7376 17.6643 44.9084 17.5612 45.053 17.4258C45.1977 17.2904 45.3069 17.1226 45.3808 16.9226L46.9411 17.098C46.8427 17.5104 46.6549 17.8705 46.3779 18.1783C46.104 18.483 45.7532 18.7199 45.3254 18.8892C44.8976 19.0554 44.4082 19.1385 43.8573 19.1385ZM49.8354 14.8452V19H48.1642V11.9091H49.7615V13.114H49.8446C50.0077 12.717 50.2678 12.4015 50.6248 12.1676C50.9849 11.9337 51.4296 11.8168 51.9589 11.8168C52.4483 11.8168 52.8745 11.9214 53.2377 12.1307C53.6039 12.34 53.8871 12.6431 54.0871 13.0401C54.2903 13.4371 54.3903 13.9188 54.3872 14.4851V19H52.716V14.7436C52.716 14.2696 52.5929 13.8988 52.3467 13.631C52.1036 13.3633 51.7666 13.2294 51.3357 13.2294C51.0433 13.2294 50.7833 13.294 50.5555 13.4233C50.3309 13.5495 50.1539 13.7326 50.0246 13.9727C49.8984 14.2127 49.8354 14.5036 49.8354 14.8452ZM58.9653 19.1385C58.2543 19.1385 57.6403 18.9908 57.1233 18.6953C56.6093 18.3968 56.2139 17.9751 55.9369 17.4304C55.6599 16.8826 55.5214 16.2378 55.5214 15.4961C55.5214 14.7667 55.6599 14.1265 55.9369 13.5756C56.2169 13.0217 56.6078 12.5908 57.1094 12.283C57.6111 11.9722 58.2005 11.8168 58.8776 11.8168C59.3146 11.8168 59.727 11.8875 60.1148 12.0291C60.5056 12.1676 60.8503 12.383 61.1489 12.6754C61.4505 12.9678 61.6875 13.3402 61.8598 13.7926C62.0322 14.242 62.1183 14.7775 62.1183 15.3991V15.9116H56.3062V14.7852H60.5164C60.5133 14.4651 60.4441 14.1804 60.3087 13.9311C60.1732 13.6787 59.984 13.4802 59.7408 13.3356C59.5008 13.1909 59.2207 13.1186 58.9006 13.1186C58.559 13.1186 58.2589 13.2017 58.0004 13.3679C57.7419 13.531 57.5403 13.7464 57.3957 14.0142C57.2541 14.2789 57.1818 14.5697 57.1787 14.8867V15.87C57.1787 16.2824 57.2541 16.6364 57.4049 16.9318C57.5557 17.2242 57.7665 17.4489 58.0374 17.6058C58.3082 17.7597 58.6252 17.8366 58.9884 17.8366C59.2315 17.8366 59.4515 17.8028 59.6485 17.7351C59.8455 17.6643 60.0163 17.5612 60.1609 17.4258C60.3056 17.2904 60.4148 17.1226 60.4887 16.9226L62.0491 17.098C61.9506 17.5104 61.7629 17.8705 61.4859 18.1783C61.212 18.483 60.8611 18.7199 60.4333 18.8892C60.0055 19.0554 59.5162 19.1385 58.9653 19.1385ZM63.2721 19V11.9091H64.8925V13.0909H64.9664C65.0956 12.6816 65.3172 12.3661 65.6311 12.1445C65.9481 11.9199 66.3098 11.8075 66.716 11.8075C66.8083 11.8075 66.9114 11.8121 67.0253 11.8214C67.1423 11.8275 67.2392 11.8383 67.3162 11.8537V13.391C67.2454 13.3664 67.133 13.3448 66.9792 13.3263C66.8283 13.3048 66.6822 13.294 66.5406 13.294C66.2359 13.294 65.962 13.3602 65.7189 13.4925C65.4788 13.6218 65.2895 13.8018 65.151 14.0327C65.0125 14.2635 64.9433 14.5297 64.9433 14.8313V19H63.2721ZM70.0799 19.1431C69.6306 19.1431 69.2259 19.0631 68.8658 18.9031C68.5088 18.7399 68.2257 18.4999 68.0164 18.1829C67.8102 17.8659 67.7071 17.475 67.7071 17.0103C67.7071 16.6102 67.7809 16.2794 67.9287 16.0178C68.0764 15.7562 68.278 15.5469 68.5334 15.3899C68.7889 15.233 69.0766 15.1145 69.3967 15.0344C69.7199 14.9513 70.0538 14.8913 70.3985 14.8544C70.814 14.8113 71.151 14.7728 71.4095 14.739C71.668 14.7021 71.8558 14.6467 71.9727 14.5728C72.0927 14.4959 72.1527 14.3774 72.1527 14.2173V14.1896C72.1527 13.8419 72.0496 13.5726 71.8434 13.3817C71.6372 13.1909 71.3402 13.0955 70.9525 13.0955C70.5431 13.0955 70.2184 13.1848 69.9784 13.3633C69.7414 13.5418 69.5814 13.7526 69.4983 13.9957L67.9379 13.7741C68.061 13.3433 68.2641 12.9832 68.5473 12.6939C68.8304 12.4015 69.1767 12.183 69.586 12.0384C69.9953 11.8906 70.4477 11.8168 70.9432 11.8168C71.2848 11.8168 71.6249 11.8568 71.9635 11.9368C72.302 12.0168 72.6113 12.1491 72.8914 12.3338C73.1715 12.5154 73.3961 12.7631 73.5654 13.0771C73.7377 13.391 73.8239 13.7834 73.8239 14.2543V19H72.2174V18.0259H72.162C72.0604 18.2229 71.9173 18.4076 71.7326 18.5799C71.5511 18.7492 71.3218 18.8861 71.0448 18.9908C70.7709 19.0923 70.4493 19.1431 70.0799 19.1431ZM70.5139 17.9151C70.8494 17.9151 71.1402 17.849 71.3864 17.7166C71.6326 17.5812 71.8219 17.4027 71.9542 17.1811C72.0897 16.9595 72.1574 16.7179 72.1574 16.4563V15.6207C72.105 15.6638 72.0158 15.7038 71.8896 15.7408C71.7665 15.7777 71.628 15.81 71.4741 15.8377C71.3202 15.8654 71.1679 15.89 71.0171 15.9116C70.8663 15.9331 70.7355 15.9516 70.6247 15.967C70.3754 16.0008 70.1523 16.0562 69.9553 16.1332C69.7583 16.2101 69.6029 16.3178 69.489 16.4563C69.3752 16.5917 69.3182 16.7672 69.3182 16.9826C69.3182 17.2904 69.4306 17.5227 69.6552 17.6797C69.8799 17.8366 70.1661 17.9151 70.5139 17.9151ZM78.7851 11.9091V13.2017H74.7088V11.9091H78.7851ZM75.7152 10.2102H77.3864V16.8672C77.3864 17.0919 77.4202 17.2642 77.4879 17.3842C77.5587 17.5012 77.651 17.5812 77.7649 17.6243C77.8788 17.6674 78.005 17.6889 78.1435 17.6889C78.2481 17.6889 78.3435 17.6812 78.4297 17.6658C78.5189 17.6504 78.5866 17.6366 78.6328 17.6243L78.9144 18.9308C78.8252 18.9615 78.6974 18.9954 78.5312 19.0323C78.3681 19.0692 78.1681 19.0908 77.9311 19.0969C77.5125 19.1093 77.1355 19.0462 76.8001 18.9077C76.4646 18.7661 76.1984 18.5476 76.0014 18.2521C75.8075 17.9567 75.7121 17.5874 75.7152 17.1442V10.2102ZM82.9858 19.1385C82.2749 19.1385 81.6609 18.9908 81.1438 18.6953C80.6299 18.3968 80.2344 17.9751 79.9574 17.4304C79.6804 16.8826 79.5419 16.2378 79.5419 15.4961C79.5419 14.7667 79.6804 14.1265 79.9574 13.5756C80.2375 13.0217 80.6283 12.5908 81.13 12.283C81.6317 11.9722 82.221 11.8168 82.8981 11.8168C83.3351 11.8168 83.7475 11.8875 84.1353 12.0291C84.5262 12.1676 84.8709 12.383 85.1694 12.6754C85.471 12.9678 85.708 13.3402 85.8804 13.7926C86.0527 14.242 86.1389 14.7775 86.1389 15.3991V15.9116H80.3267V14.7852H84.537C84.5339 14.4651 84.4646 14.1804 84.3292 13.9311C84.1938 13.6787 84.0045 13.4802 83.7614 13.3356C83.5213 13.1909 83.2413 13.1186 82.9212 13.1186C82.5796 13.1186 82.2795 13.2017 82.021 13.3679C81.7625 13.531 81.5609 13.7464 81.4162 14.0142C81.2746 14.2789 81.2023 14.5697 81.1992 14.8867V15.87C81.1992 16.2824 81.2746 16.6364 81.4254 16.9318C81.5763 17.2242 81.7871 17.4489 82.0579 17.6058C82.3287 17.7597 82.6457 17.8366 83.0089 17.8366C83.252 17.8366 83.4721 17.8028 83.6691 17.7351C83.866 17.6643 84.0368 17.5612 84.1815 17.4258C84.3261 17.2904 84.4354 17.1226 84.5093 16.9226L86.0696 17.098C85.9711 17.5104 85.7834 17.8705 85.5064 18.1783C85.2325 18.483 84.8817 18.7199 84.4539 18.8892C84.0261 19.0554 83.5367 19.1385 82.9858 19.1385Z" fill="#2E74E7"/>
</g>
</g>
<defs>
<filter id="filter0_i_1_2181" x="0" y="-1" width="97" height="29" filterUnits="userSpaceOnUse" color-interpolation-filters="sRGB">
<feFlood flood-opacity="0" result="BackgroundImageFix"/>
<feBlend mode="normal" in="SourceGraphic" in2="BackgroundImageFix" result="shape"/>
<feColorMatrix in="SourceAlpha" type="matrix" values="0 0 0 0 0 0 0 0 0 0 0 0 0 0 0 0 0 0 127 0" result="hardAlpha"/>
<feOffset dy="-1"/>
<feGaussianBlur stdDeviation="2"/>
<feComposite in2="hardAlpha" operator="arithmetic" k2="-1" k3="1"/>
<feColorMatrix type="matrix" values="0 0 0 0 0 0 0 0 0 0 0 0 0 0 0 0 0 0 0.05 0"/>
<feBlend mode="normal" in2="shape" result="effect1_innerShadow_1_2181"/>
</filter>
<clipPath id="clip0_1_2181">
<rect width="97" height="28" rx="14" fill="white"/>
</clipPath>
<clipPath id="clip1_1_2181">
<rect width="16" height="16" fill="white" transform="translate(10 6)"/>
</clipPath>
</defs>
</svg>
