<svg width="22" height="22" viewBox="0 0 22 22" fill="none" xmlns="http://www.w3.org/2000/svg">
<g id="GraduationCap">
<path id="Vector" d="M21.4674 7.34678L11.4986 1.84678C11.346 1.76252 11.1745 1.71832 11.0002 1.71832C10.8258 1.71832 10.6543 1.76252 10.5017 1.84678L0.532975 7.34678C0.371789 7.43596 0.237434 7.56669 0.143877 7.72538C0.05032 7.88406 0.000976562 8.06491 0.000976563 8.24912C0.000976562 8.43334 0.05032 8.61418 0.143877 8.77287C0.237434 8.93156 0.371789 9.06229 0.532975 9.15147L2.40641 10.1827V14.2871C2.40573 14.7096 2.56156 15.1174 2.84383 15.4318C4.00743 16.732 6.61735 18.9062 11.0002 18.9062C12.1641 18.9125 13.3226 18.746 14.4377 18.4121V20.625C14.4377 20.8985 14.5463 21.1608 14.7397 21.3542C14.9331 21.5476 15.1954 21.6562 15.4689 21.6562C15.7424 21.6562 16.0047 21.5476 16.1981 21.3542C16.3915 21.1608 16.5002 20.8985 16.5002 20.625V17.5415C17.4962 16.9914 18.3938 16.2796 19.1565 15.4352C19.4388 15.1208 19.5946 14.713 19.5939 14.2905V10.1862L21.4674 9.1549C21.6285 9.06572 21.7629 8.93499 21.8564 8.77631C21.95 8.61762 21.9993 8.43677 21.9993 8.25256C21.9993 8.06835 21.95 7.8875 21.8564 7.72881C21.7629 7.57013 21.6285 7.4394 21.4674 7.35022V7.34678ZM11.0002 3.92819L18.8342 8.24998L15.9845 9.82264C15.9792 9.8195 15.974 9.81606 15.9691 9.81233L11.5003 7.34678C11.2617 7.22347 10.9845 7.1981 10.7274 7.27607C10.4704 7.35404 10.254 7.52919 10.1241 7.76428C9.99428 7.99936 9.96126 8.27584 10.0321 8.5349C10.1029 8.79396 10.272 9.01516 10.5034 9.15147L13.855 10.9983L11.0002 12.5726L3.1661 8.24998L11.0002 3.92819ZM11.0002 16.8437C7.52657 16.8437 5.4443 15.2049 4.46891 14.1565V11.3205L10.5017 14.6497C10.6543 14.734 10.8258 14.7782 11.0002 14.7782C11.1745 14.7782 11.346 14.734 11.4986 14.6497L14.4377 13.0315V16.231C13.3396 16.646 12.174 16.8538 11.0002 16.8437ZM17.5314 14.1565C17.2152 14.4954 16.8701 14.8062 16.5002 15.0855V11.8929L17.5314 11.324V14.1565Z" fill="#5F666C"/>
</g>
</svg>
