<svg width="22" height="22" viewBox="0 0 22 22" fill="none" xmlns="http://www.w3.org/2000/svg">
<g id="House">
<path id="Vector" d="M19.0403 8.66681L12.1696 2.18111L12.1559 2.16822C11.8401 1.87926 11.4276 1.71899 10.9996 1.71899C10.5715 1.71899 10.159 1.87926 9.84328 2.16822L9.82867 2.18111L2.95969 8.66681C2.78549 8.82798 2.64643 9.02336 2.5512 9.24073C2.45597 9.4581 2.40663 9.69278 2.40625 9.9301V17.875C2.40625 18.3309 2.58733 18.768 2.90966 19.0904C3.23199 19.4127 3.66916 19.5938 4.125 19.5938H8.25C8.70584 19.5938 9.14301 19.4127 9.46534 19.0904C9.78767 18.768 9.96875 18.3309 9.96875 17.875V14.0938H12.0312V17.875C12.0312 18.3309 12.2123 18.768 12.5347 19.0904C12.857 19.4127 13.2942 19.5938 13.75 19.5938H17.875C18.3308 19.5938 18.768 19.4127 19.0903 19.0904C19.4127 18.768 19.5938 18.3309 19.5938 17.875V9.9301C19.5934 9.69278 19.544 9.4581 19.4488 9.24073C19.3536 9.02336 19.2145 8.82798 19.0403 8.66681ZM17.5312 17.5313H14.0938V13.75C14.0938 13.5243 14.0493 13.3008 13.9629 13.0923C13.8765 12.8838 13.7499 12.6943 13.5903 12.5347C13.4307 12.3751 13.2413 12.2485 13.0327 12.1621C12.8242 12.0757 12.6007 12.0313 12.375 12.0313H9.625C9.16916 12.0313 8.73199 12.2123 8.40966 12.5347C8.08733 12.857 7.90625 13.2942 7.90625 13.75V17.5313H4.46875V10.0788L11 3.91275L17.5312 10.0788V17.5313Z" fill="#5F666C"/>
</g>
</svg>
