<svg width="123" height="40" viewBox="0 0 123 40" fill="none" xmlns="http://www.w3.org/2000/svg">
<path d="M10.5928 3.65875C6.5536 5.68394 3.2417 7.35107 3.2417 7.39583C3.2417 7.48534 3.75639 7.65317 8.24311 9.0294L9.28368 9.34269V10.9874C9.28368 11.9049 9.32843 12.6434 9.38438 12.6434C9.44032 12.6434 9.61934 12.4532 9.79837 12.2182C10.7382 10.9875 12.2711 9.72311 13.6809 9.06297C15.1914 8.33569 16.4893 8.05597 18.2571 8.05597C19.8012 8.05597 20.5508 8.20143 21.9495 8.7273C23.7621 9.40982 25.597 10.7861 26.5481 12.1623C27.018 12.8672 27.0739 12.7665 27.0739 11.0993C27.0739 10.2602 27.1187 9.51052 27.1635 9.44339C27.2306 9.3315 28.9872 8.7273 29.2334 8.7273C29.2782 8.7273 29.3117 9.49933 29.3117 10.4392C29.3117 12.0392 29.3005 12.1511 29.0768 12.2854C28.7075 12.5203 28.5061 13.1133 28.6628 13.5609C28.7299 13.7623 28.8306 13.9637 28.8977 13.9973C28.9537 14.042 28.8977 14.5231 28.7635 15.1721C28.6292 15.7763 28.5285 16.3133 28.5285 16.3581C28.5285 16.4029 29.0879 16.4476 29.7705 16.4476C30.9117 16.4476 31.0124 16.4364 30.9341 16.2462C30.8558 16.0448 30.6768 15.1049 30.5761 14.3665C30.5425 14.0868 30.5649 13.8742 30.6432 13.8294C30.7103 13.7847 30.7663 13.5049 30.7663 13.214C30.7663 12.7889 30.7103 12.6322 30.4865 12.4196C30.2068 12.1623 30.2068 12.1399 30.2068 10.2826V8.41401L31.1914 8.11192C32.5565 7.68674 33.1159 7.47415 33.1159 7.38464C33.1159 7.23919 18.5033 0 18.2124 0C18.0669 0 14.6319 1.64476 10.5928 3.65875Z" fill="url(#paint0_linear_1_2051)"/>
<path d="M16.5564 9.23058C13.8823 9.68932 11.5214 11.3117 10.0781 13.6837C9.52982 14.6012 9.23891 15.2949 8.95919 16.4138C8.6459 17.6334 8.63471 19.6362 8.948 20.7551C9.30604 22.0754 9.36199 22.2096 9.86549 23.1719C10.2459 23.9104 10.604 24.3579 11.5662 25.3313C12.9089 26.6964 13.5466 27.5803 13.8375 28.4866L14.0277 29.0908H14.5312C15.9187 29.0908 17.2277 27.7817 17.2277 26.4055C17.2277 25.8796 16.9928 25.1971 16.6236 24.6488C16.2991 24.1901 16.2431 23.4964 16.4781 23.0936C17.1606 21.9299 18.2795 21.5831 19.2082 22.2544C20.0921 22.8922 20.2599 23.9663 19.6334 24.9509C19.3424 25.3985 19.3089 25.5551 19.3089 26.3495C19.2977 27.0544 19.3536 27.3341 19.5438 27.7034C19.969 28.4978 20.976 29.0908 21.9047 29.0908C22.4529 29.0908 22.4753 29.0796 22.5425 28.7327C22.7439 27.7817 23.3145 26.9202 24.6124 25.6111C26.4585 23.7537 27.1858 22.4222 27.5774 20.2068C27.7788 19.0768 27.7788 18.2152 27.5886 17.0628C26.7047 11.804 21.8264 8.33547 16.5564 9.23058Z" fill="url(#paint1_linear_1_2051)"/>
<path d="M14.0944 29.8406C14.0944 29.8965 14.1504 30.1315 14.2175 30.3776C14.3965 30.993 14.8105 31.4965 15.3812 31.765C15.8399 31.9776 16.0861 32 18.2455 32C20.5616 32 20.6175 32 21.1322 31.7203C21.7252 31.3846 22.1504 30.8028 22.2287 30.1874L22.2959 29.7622H18.1896C15.9406 29.7622 14.0944 29.7958 14.0944 29.8406Z" fill="url(#paint2_linear_1_2051)"/>
<path d="M56.6716 11.8331V29.8574H52.629V27.6687C51.3931 29.3338 49.5735 30.1664 47.1702 30.1664C45.0416 30.1664 43.3765 29.4969 42.1749 28.1579C40.9905 26.8018 40.3983 24.8792 40.3983 22.3902V11.8331H44.5696V22.2614C44.5696 23.7034 44.9043 24.7934 45.5738 25.5316C46.2604 26.2525 47.1874 26.613 48.3547 26.613C49.6078 26.613 50.612 26.2268 51.3673 25.4543C52.1226 24.6647 52.5003 23.506 52.5003 21.9782V11.8331H56.6716Z" fill="black"/>
<path d="M67.9237 15.7984C69.6403 15.7984 71.0222 16.3134 72.0693 17.3434C73.1336 18.3733 73.6657 19.9011 73.6657 21.9267V29.8574H69.6489V22.5447C69.6489 21.446 69.4086 20.6307 68.9279 20.0985C68.4473 19.5492 67.7521 19.2745 66.8423 19.2745C65.8295 19.2745 65.0227 19.5921 64.4219 20.2273C63.821 20.8452 63.5206 21.7722 63.5206 23.0082V29.8574H59.5038V16.0044H63.3404V17.6266C63.8725 17.043 64.5334 16.5966 65.3231 16.2877C66.1127 15.9615 66.9796 15.7984 67.9237 15.7984Z" fill="black"/>
<path d="M76.1481 16.0044H80.165V29.8574H76.1481V16.0044ZM78.1565 14.0732C77.4184 14.0732 76.8176 13.8587 76.3541 13.4295C75.8906 13.0004 75.6589 12.4682 75.6589 11.8331C75.6589 11.1979 75.8906 10.6658 76.3541 10.2366C76.8176 9.8075 77.4184 9.59292 78.1565 9.59292C78.8947 9.59292 79.4955 9.79891 79.959 10.2109C80.4224 10.6229 80.6542 11.1379 80.6542 11.7558C80.6542 12.4253 80.4224 12.9832 79.959 13.4295C79.4955 13.8587 78.8947 14.0732 78.1565 14.0732Z" fill="black"/>
<path d="M87.7038 30.0634C86.1417 30.0634 84.9229 29.6514 84.0474 28.8274C83.172 27.9863 82.7342 26.8018 82.7342 25.2741V10.7516H86.7511V25.0423C86.7511 25.626 86.897 26.0809 87.1888 26.407C87.4978 26.716 87.9269 26.8705 88.4762 26.8705C88.6822 26.8705 88.8882 26.8448 89.0942 26.7933C89.3174 26.7418 89.489 26.6817 89.6092 26.613L89.7894 29.7286C89.12 29.9518 88.4248 30.0634 87.7038 30.0634Z" fill="black"/>
<path d="M90.6028 16.0044H94.6196V29.8574H90.6028V16.0044ZM92.6112 14.0732C91.873 14.0732 91.2722 13.8587 90.8087 13.4295C90.3453 13.0004 90.1135 12.4682 90.1135 11.8331C90.1135 11.1979 90.3453 10.6658 90.8087 10.2366C91.2722 9.8075 91.873 9.59292 92.6112 9.59292C93.3493 9.59292 93.9501 9.79891 94.4136 10.2109C94.8771 10.6229 95.1088 11.1379 95.1088 11.7558C95.1088 12.4253 94.8771 12.9832 94.4136 13.4295C93.9501 13.8587 93.3493 14.0732 92.6112 14.0732Z" fill="black"/>
<path d="M105.532 29.1879C105.137 29.4797 104.647 29.7029 104.064 29.8574C103.497 29.9947 102.905 30.0634 102.287 30.0634C100.622 30.0634 99.3432 29.6428 98.4506 28.8017C97.5579 27.9605 97.1116 26.7246 97.1116 25.0938V12.9403H101.128V16.3134H104.553V19.4033H101.128V25.0423C101.128 25.626 101.274 26.0809 101.566 26.407C101.858 26.716 102.279 26.8705 102.828 26.8705C103.446 26.8705 103.995 26.6988 104.476 26.3555L105.532 29.1879Z" fill="black"/>
<path d="M113.192 26.8447C113.913 26.8447 114.548 26.7418 115.097 26.5358C115.664 26.3126 116.188 25.9693 116.668 25.5058L118.805 27.8232C117.501 29.3167 115.595 30.0634 113.089 30.0634C111.527 30.0634 110.145 29.763 108.943 29.1622C107.742 28.5442 106.815 27.6945 106.163 26.613C105.51 25.5315 105.184 24.3042 105.184 22.9309C105.184 21.5748 105.502 20.356 106.137 19.2745C106.789 18.1759 107.673 17.3262 108.789 16.7254C109.922 16.1074 111.192 15.7984 112.6 15.7984C113.922 15.7984 115.123 16.0817 116.205 16.6481C117.286 17.1975 118.144 18.0043 118.78 19.0686C119.432 20.1157 119.758 21.3602 119.758 22.8022L109.51 24.7848C109.802 25.4715 110.257 25.9864 110.875 26.3298C111.51 26.6731 112.282 26.8447 113.192 26.8447ZM112.6 18.8368C111.587 18.8368 110.763 19.163 110.128 19.8153C109.493 20.4676 109.158 21.3688 109.124 22.5189L115.87 21.2057C115.681 20.4847 115.295 19.9097 114.711 19.4805C114.128 19.0514 113.424 18.8368 112.6 18.8368Z" fill="black"/>
<defs>
<linearGradient id="paint0_linear_1_2051" x1="61.4999" y1="0" x2="61.4999" y2="32" gradientUnits="userSpaceOnUse">
<stop stop-color="#044BC0"/>
<stop offset="1" stop-color="#156EFF"/>
</linearGradient>
<linearGradient id="paint1_linear_1_2051" x1="61.4999" y1="0" x2="61.4999" y2="32" gradientUnits="userSpaceOnUse">
<stop stop-color="#044BC0"/>
<stop offset="1" stop-color="#156EFF"/>
</linearGradient>
<linearGradient id="paint2_linear_1_2051" x1="61.4999" y1="0" x2="61.4999" y2="32" gradientUnits="userSpaceOnUse">
<stop stop-color="#044BC0"/>
<stop offset="1" stop-color="#156EFF"/>
</linearGradient>
</defs>
</svg>
