<svg width="155" height="28" viewBox="0 0 155 28" fill="none" xmlns="http://www.w3.org/2000/svg">
<g filter="url(#filter0_i_1_2083)">
<g clip-path="url(#clip0_1_2083)">
<rect width="155" height="28" rx="14" fill="#ECF3FF"/>
<rect x="0.5" y="0.5" width="154" height="27" rx="13.5" stroke="black" stroke-opacity="0.03"/>
<g clip-path="url(#clip1_1_2083)">
<path d="M14.3335 14.6666L14.8565 15.7126C15.0335 16.0666 15.122 16.2436 15.2402 16.3969C15.3451 16.533 15.4671 16.6551 15.6032 16.76C15.7566 16.8782 15.9336 16.9667 16.2876 17.1437L17.3335 17.6666L16.2876 18.1896C15.9336 18.3666 15.7566 18.4551 15.6032 18.5733C15.4671 18.6782 15.3451 18.8003 15.2402 18.9363C15.122 19.0897 15.0335 19.2667 14.8565 19.6207L14.3335 20.6666L13.8105 19.6207C13.6335 19.2667 13.545 19.0897 13.4268 18.9363C13.3219 18.8003 13.1999 18.6782 13.0638 18.5733C12.9104 18.4551 12.7334 18.3666 12.3794 18.1896L11.3335 17.6666L12.3794 17.1437C12.7334 16.9667 12.9104 16.8782 13.0638 16.76C13.1999 16.6551 13.3219 16.533 13.4268 16.3969C13.545 16.2436 13.6335 16.0666 13.8105 15.7126L14.3335 14.6666Z" stroke="#2E74E7" stroke-width="1.5" stroke-linecap="round" stroke-linejoin="round"/>
<path d="M20.0002 7.33331L20.7859 9.37626C20.9739 9.86508 21.0679 10.1095 21.2141 10.3151C21.3437 10.4973 21.5029 10.6565 21.6851 10.786C21.8907 10.9322 22.1351 11.0262 22.6239 11.2142L24.6668 12L22.6239 12.7857C22.1351 12.9737 21.8907 13.0677 21.6851 13.2139C21.5029 13.3435 21.3437 13.5027 21.2141 13.6849C21.0679 13.8905 20.9739 14.1349 20.7859 14.6237L20.0002 16.6666L19.2144 14.6237C19.0264 14.1349 18.9324 13.8905 18.7862 13.6849C18.6567 13.5027 18.4975 13.3435 18.3153 13.2139C18.1097 13.0677 17.8653 12.9737 17.3764 12.7857L15.3335 12L17.3764 11.2142C17.8653 11.0262 18.1097 10.9322 18.3153 10.786C18.4975 10.6565 18.6567 10.4973 18.7862 10.3151C18.9324 10.1095 19.0264 9.86508 19.2144 9.37626L20.0002 7.33331Z" stroke="#2E74E7" stroke-width="1.5" stroke-linecap="round" stroke-linejoin="round"/>
</g>
<path d="M32.417 19H30.5888L33.9173 9.54545H36.0317L39.3648 19H37.5366L35.0114 11.4844H34.9376L32.417 19ZM32.477 15.293H37.4628V16.6687H32.477V15.293ZM44.7957 16.0178V11.9091H46.4669V19H44.8465V17.7397H44.7726C44.6126 18.1367 44.3495 18.4614 43.9832 18.7138C43.6201 18.9661 43.1723 19.0923 42.6398 19.0923C42.1751 19.0923 41.7642 18.9892 41.4072 18.783C41.0533 18.5737 40.7763 18.2706 40.5763 17.8736C40.3762 17.4735 40.2762 16.9903 40.2762 16.424V11.9091H41.9474V16.1655C41.9474 16.6148 42.0705 16.9718 42.3167 17.2365C42.5629 17.5012 42.886 17.6335 43.2861 17.6335C43.5323 17.6335 43.7709 17.5735 44.0017 17.4535C44.2325 17.3335 44.4218 17.1549 44.5695 16.918C44.7203 16.6779 44.7957 16.3778 44.7957 16.0178ZM51.4662 11.9091V13.2017H47.3899V11.9091H51.4662ZM48.3962 10.2102H50.0674V16.8672C50.0674 17.0919 50.1013 17.2642 50.169 17.3842C50.2398 17.5012 50.3321 17.5812 50.446 17.6243C50.5598 17.6674 50.686 17.6889 50.8245 17.6889C50.9292 17.6889 51.0246 17.6812 51.1107 17.6658C51.2 17.6504 51.2677 17.6366 51.3139 17.6243L51.5955 18.9308C51.5062 18.9615 51.3785 18.9954 51.2123 19.0323C51.0492 19.0692 50.8491 19.0908 50.6122 19.0969C50.1936 19.1093 49.8166 19.0462 49.4811 18.9077C49.1457 18.7661 48.8794 18.5476 48.6825 18.2521C48.4886 17.9567 48.3932 17.5874 48.3962 17.1442V10.2102ZM55.6207 19.1385C54.9282 19.1385 54.3281 18.9862 53.8203 18.6815C53.3125 18.3768 52.9185 17.9505 52.6385 17.4027C52.3615 16.8549 52.223 16.2147 52.223 15.4822C52.223 14.7498 52.3615 14.1081 52.6385 13.5572C52.9185 13.0063 53.3125 12.5785 53.8203 12.2738C54.3281 11.9691 54.9282 11.8168 55.6207 11.8168C56.3132 11.8168 56.9133 11.9691 57.4211 12.2738C57.9289 12.5785 58.3213 13.0063 58.5983 13.5572C58.8784 14.1081 59.0184 14.7498 59.0184 15.4822C59.0184 16.2147 58.8784 16.8549 58.5983 17.4027C58.3213 17.9505 57.9289 18.3768 57.4211 18.6815C56.9133 18.9862 56.3132 19.1385 55.6207 19.1385ZM55.6299 17.7997C56.0054 17.7997 56.3193 17.6966 56.5717 17.4904C56.8241 17.2811 57.0118 17.0011 57.1349 16.6502C57.2611 16.2994 57.3242 15.9085 57.3242 15.4776C57.3242 15.0437 57.2611 14.6513 57.1349 14.3004C57.0118 13.9465 56.8241 13.6649 56.5717 13.4556C56.3193 13.2463 56.0054 13.1417 55.6299 13.1417C55.2452 13.1417 54.9252 13.2463 54.6697 13.4556C54.4173 13.6649 54.2281 13.9465 54.1019 14.3004C53.9788 14.6513 53.9172 15.0437 53.9172 15.4776C53.9172 15.9085 53.9788 16.2994 54.1019 16.6502C54.2281 17.0011 54.4173 17.2811 54.6697 17.4904C54.9252 17.6966 55.2452 17.7997 55.6299 17.7997ZM68.7459 13.7834L67.2224 13.9496C67.1793 13.7957 67.1039 13.651 66.9962 13.5156C66.8916 13.3802 66.75 13.271 66.5715 13.1879C66.393 13.1048 66.1745 13.0632 65.916 13.0632C65.5682 13.0632 65.2758 13.1386 65.0388 13.2894C64.8049 13.4402 64.6895 13.6357 64.6926 13.8757C64.6895 14.0819 64.7649 14.2496 64.9188 14.3789C65.0758 14.5082 65.3343 14.6143 65.6944 14.6974L66.9039 14.956C67.5748 15.1006 68.0734 15.3299 68.3996 15.6438C68.7289 15.9577 68.8951 16.3686 68.8982 16.8764C68.8951 17.3227 68.7643 17.7166 68.5058 18.0582C68.2504 18.3968 67.8949 18.6615 67.4394 18.8523C66.9839 19.0431 66.4607 19.1385 65.8698 19.1385C65.0019 19.1385 64.3033 18.9569 63.7739 18.5938C63.2446 18.2275 62.9291 17.7182 62.8275 17.0657L64.4572 16.9087C64.531 17.2288 64.688 17.4704 64.928 17.6335C65.1681 17.7966 65.4805 17.8782 65.8652 17.8782C66.2622 17.8782 66.5807 17.7966 66.8208 17.6335C67.0639 17.4704 67.1855 17.2688 67.1855 17.0288C67.1855 16.8256 67.107 16.6579 66.9501 16.5256C66.7962 16.3932 66.5561 16.2917 66.2299 16.2209L65.0204 15.967C64.3402 15.8254 63.837 15.5869 63.5108 15.2514C63.1845 14.9129 63.023 14.4851 63.026 13.968C63.023 13.531 63.1415 13.1525 63.3815 12.8324C63.6247 12.5092 63.9617 12.2599 64.3925 12.0845C64.8265 11.906 65.3266 11.8168 65.8929 11.8168C66.7238 11.8168 67.3778 11.9937 67.8549 12.3477C68.335 12.7016 68.632 13.1802 68.7459 13.7834ZM73.1093 19.1385C72.4168 19.1385 71.8166 18.9862 71.3088 18.6815C70.801 18.3768 70.4071 17.9505 70.127 17.4027C69.85 16.8549 69.7115 16.2147 69.7115 15.4822C69.7115 14.7498 69.85 14.1081 70.127 13.5572C70.4071 13.0063 70.801 12.5785 71.3088 12.2738C71.8166 11.9691 72.4168 11.8168 73.1093 11.8168C73.8017 11.8168 74.4019 11.9691 74.9097 12.2738C75.4175 12.5785 75.8099 13.0063 76.0869 13.5572C76.367 14.1081 76.507 14.7498 76.507 15.4822C76.507 16.2147 76.367 16.8549 76.0869 17.4027C75.8099 17.9505 75.4175 18.3768 74.9097 18.6815C74.4019 18.9862 73.8017 19.1385 73.1093 19.1385ZM73.1185 17.7997C73.494 17.7997 73.8079 17.6966 74.0603 17.4904C74.3126 17.2811 74.5004 17.0011 74.6235 16.6502C74.7497 16.2994 74.8127 15.9085 74.8127 15.4776C74.8127 15.0437 74.7497 14.6513 74.6235 14.3004C74.5004 13.9465 74.3126 13.6649 74.0603 13.4556C73.8079 13.2463 73.494 13.1417 73.1185 13.1417C72.7338 13.1417 72.4137 13.2463 72.1583 13.4556C71.9059 13.6649 71.7166 13.9465 71.5904 14.3004C71.4673 14.6513 71.4058 15.0437 71.4058 15.4776C71.4058 15.9085 71.4673 16.2994 71.5904 16.6502C71.7166 17.0011 71.9059 17.2811 72.1583 17.4904C72.4137 17.6966 72.7338 17.7997 73.1185 17.7997ZM77.6654 19V11.9091H79.2858V13.0909H79.3597C79.4889 12.6816 79.7105 12.3661 80.0244 12.1445C80.3414 11.9199 80.703 11.8075 81.1093 11.8075C81.2016 11.8075 81.3047 11.8121 81.4186 11.8214C81.5356 11.8275 81.6325 11.8383 81.7094 11.8537V13.391C81.6387 13.3664 81.5263 13.3448 81.3724 13.3263C81.2216 13.3048 81.0754 13.294 80.9339 13.294C80.6292 13.294 80.3553 13.3602 80.1121 13.4925C79.8721 13.6218 79.6828 13.8018 79.5443 14.0327C79.4058 14.2635 79.3366 14.5297 79.3366 14.8313V19H77.6654ZM86.4814 11.9091V13.2017H82.405V11.9091H86.4814ZM83.4114 10.2102H85.0826V16.8672C85.0826 17.0919 85.1165 17.2642 85.1842 17.3842C85.255 17.5012 85.3473 17.5812 85.4612 17.6243C85.575 17.6674 85.7012 17.6889 85.8397 17.6889C85.9443 17.6889 86.0398 17.6812 86.1259 17.6658C86.2152 17.6504 86.2829 17.6366 86.3291 17.6243L86.6107 18.9308C86.5214 18.9615 86.3937 18.9954 86.2275 19.0323C86.0644 19.0692 85.8643 19.0908 85.6273 19.0969C85.2088 19.1093 84.8318 19.0462 84.4963 18.9077C84.1608 18.7661 83.8946 18.5476 83.6977 18.2521C83.5038 17.9567 83.4084 17.5874 83.4114 17.1442V10.2102ZM92.6241 19.1431C92.1748 19.1431 91.7701 19.0631 91.41 18.9031C91.053 18.7399 90.7698 18.4999 90.5606 18.1829C90.3544 17.8659 90.2513 17.475 90.2513 17.0103C90.2513 16.6102 90.3251 16.2794 90.4729 16.0178C90.6206 15.7562 90.8222 15.5469 91.0776 15.3899C91.3331 15.233 91.6208 15.1145 91.9409 15.0344C92.264 14.9513 92.598 14.8913 92.9427 14.8544C93.3582 14.8113 93.6952 14.7728 93.9537 14.739C94.2122 14.7021 94.3999 14.6467 94.5169 14.5728C94.6369 14.4959 94.6969 14.3774 94.6969 14.2173V14.1896C94.6969 13.8419 94.5938 13.5726 94.3876 13.3817C94.1814 13.1909 93.8844 13.0955 93.4966 13.0955C93.0873 13.0955 92.7626 13.1848 92.5226 13.3633C92.2856 13.5418 92.1256 13.7526 92.0425 13.9957L90.4821 13.7741C90.6052 13.3433 90.8083 12.9832 91.0915 12.6939C91.3746 12.4015 91.7208 12.183 92.1302 12.0384C92.5395 11.8906 92.9919 11.8168 93.4874 11.8168C93.829 11.8168 94.1691 11.8568 94.5077 11.9368C94.8462 12.0168 95.1555 12.1491 95.4356 12.3338C95.7156 12.5154 95.9403 12.7631 96.1096 13.0771C96.2819 13.391 96.3681 13.7834 96.3681 14.2543V19H94.7616V18.0259H94.7062C94.6046 18.2229 94.4615 18.4076 94.2768 18.5799C94.0952 18.7492 93.866 18.8861 93.589 18.9908C93.3151 19.0923 92.9934 19.1431 92.6241 19.1431ZM93.0581 17.9151C93.3935 17.9151 93.6844 17.849 93.9306 17.7166C94.1768 17.5812 94.3661 17.4027 94.4984 17.1811C94.6338 16.9595 94.7015 16.7179 94.7015 16.4563V15.6207C94.6492 15.6638 94.56 15.7038 94.4338 15.7408C94.3107 15.7777 94.1722 15.81 94.0183 15.8377C93.8644 15.8654 93.7121 15.89 93.5613 15.9116C93.4105 15.9331 93.2797 15.9516 93.1689 15.967C92.9196 16.0008 92.6965 16.0562 92.4995 16.1332C92.3025 16.2101 92.1471 16.3178 92.0332 16.4563C91.9193 16.5917 91.8624 16.7672 91.8624 16.9826C91.8624 17.2904 91.9747 17.5227 92.1994 17.6797C92.4241 17.8366 92.7103 17.9151 93.0581 17.9151ZM100.882 19.1385C100.174 19.1385 99.5658 18.9831 99.058 18.6722C98.5533 18.3614 98.164 17.9321 97.8901 17.3842C97.6192 16.8333 97.4838 16.1993 97.4838 15.4822C97.4838 14.7621 97.6223 14.1265 97.8993 13.5756C98.1763 13.0217 98.5671 12.5908 99.0719 12.283C99.5797 11.9722 100.18 11.8168 100.872 11.8168C101.448 11.8168 101.957 11.9229 102.4 12.1353C102.847 12.3446 103.202 12.6416 103.467 13.0263C103.731 13.4079 103.882 13.8542 103.919 14.3651H102.322C102.257 14.0234 102.103 13.7388 101.86 13.511C101.62 13.2802 101.299 13.1648 100.895 13.1648C100.554 13.1648 100.254 13.2571 99.9952 13.4418C99.7366 13.6233 99.5351 13.8849 99.3904 14.2266C99.2488 14.5682 99.178 14.9775 99.178 15.4545C99.178 15.9377 99.2488 16.3532 99.3904 16.701C99.532 17.0457 99.7305 17.3119 99.9859 17.4996C100.244 17.6843 100.548 17.7766 100.895 17.7766C101.142 17.7766 101.362 17.7305 101.556 17.6381C101.753 17.5427 101.917 17.4058 102.049 17.2273C102.182 17.0488 102.273 16.8318 102.322 16.5763H103.919C103.879 17.078 103.731 17.5227 103.476 17.9105C103.221 18.2952 102.873 18.5968 102.433 18.8153C101.993 19.0308 101.476 19.1385 100.882 19.1385ZM108.572 11.9091V13.2017H104.496V11.9091H108.572ZM105.502 10.2102H107.173V16.8672C107.173 17.0919 107.207 17.2642 107.275 17.3842C107.346 17.5012 107.438 17.5812 107.552 17.6243C107.666 17.6674 107.792 17.6889 107.931 17.6889C108.035 17.6889 108.131 17.6812 108.217 17.6658C108.306 17.6504 108.374 17.6366 108.42 17.6243L108.702 18.9308C108.612 18.9615 108.485 18.9954 108.318 19.0323C108.155 19.0692 107.955 19.0908 107.718 19.0969C107.3 19.1093 106.923 19.0462 106.587 18.9077C106.252 18.7661 105.985 18.5476 105.789 18.2521C105.595 17.9567 105.499 17.5874 105.502 17.1442V10.2102ZM109.71 19V11.9091H111.381V19H109.71ZM110.55 10.9027C110.285 10.9027 110.058 10.815 109.867 10.6396C109.676 10.4611 109.581 10.2472 109.581 9.99787C109.581 9.7455 109.676 9.5316 109.867 9.35618C110.058 9.17767 110.285 9.08842 110.55 9.08842C110.818 9.08842 111.046 9.17767 111.233 9.35618C111.424 9.5316 111.52 9.7455 111.52 9.99787C111.52 10.2472 111.424 10.4611 111.233 10.6396C111.046 10.815 110.818 10.9027 110.55 10.9027ZM119.173 11.9091L116.648 19H114.802L112.276 11.9091H114.058L115.688 17.1765H115.762L117.396 11.9091H119.173ZM120.07 19V11.9091H121.741V19H120.07ZM120.91 10.9027C120.645 10.9027 120.418 10.815 120.227 10.6396C120.036 10.4611 119.941 10.2472 119.941 9.99787C119.941 9.7455 120.036 9.5316 120.227 9.35618C120.418 9.17767 120.645 9.08842 120.91 9.08842C121.178 9.08842 121.405 9.17767 121.593 9.35618C121.784 9.5316 121.879 9.7455 121.879 9.99787C121.879 10.2472 121.784 10.4611 121.593 10.6396C121.405 10.815 121.178 10.9027 120.91 10.9027ZM126.74 11.9091V13.2017H122.664V11.9091H126.74ZM123.67 10.2102H125.341V16.8672C125.341 17.0919 125.375 17.2642 125.443 17.3842C125.514 17.5012 125.606 17.5812 125.72 17.6243C125.834 17.6674 125.96 17.6889 126.099 17.6889C126.203 17.6889 126.299 17.6812 126.385 17.6658C126.474 17.6504 126.542 17.6366 126.588 17.6243L126.87 18.9308C126.78 18.9615 126.653 18.9954 126.486 19.0323C126.323 19.0692 126.123 19.0908 125.886 19.0969C125.468 19.1093 125.091 19.0462 124.755 18.9077C124.42 18.7661 124.153 18.5476 123.957 18.2521C123.763 17.9567 123.667 17.5874 123.67 17.1442V10.2102ZM127.878 19V11.9091H129.549V19H127.878ZM128.718 10.9027C128.453 10.9027 128.226 10.815 128.035 10.6396C127.844 10.4611 127.749 10.2472 127.749 9.99787C127.749 9.7455 127.844 9.5316 128.035 9.35618C128.226 9.17767 128.453 9.08842 128.718 9.08842C128.986 9.08842 129.214 9.17767 129.401 9.35618C129.592 9.5316 129.688 9.7455 129.688 9.99787C129.688 10.2472 129.592 10.4611 129.401 10.6396C129.214 10.815 128.986 10.9027 128.718 10.9027ZM134.147 19.1385C133.436 19.1385 132.822 18.9908 132.305 18.6953C131.791 18.3968 131.395 17.9751 131.118 17.4304C130.841 16.8826 130.703 16.2378 130.703 15.4961C130.703 14.7667 130.841 14.1265 131.118 13.5756C131.398 13.0217 131.789 12.5908 132.291 12.283C132.793 11.9722 133.382 11.8168 134.059 11.8168C134.496 11.8168 134.908 11.8875 135.296 12.0291C135.687 12.1676 136.032 12.383 136.33 12.6754C136.632 12.9678 136.869 13.3402 137.041 13.7926C137.214 14.242 137.3 14.7775 137.3 15.3991V15.9116H131.488V14.7852H135.698C135.695 14.4651 135.626 14.1804 135.49 13.9311C135.355 13.6787 135.165 13.4802 134.922 13.3356C134.682 13.1909 134.402 13.1186 134.082 13.1186C133.741 13.1186 133.44 13.2017 133.182 13.3679C132.923 13.531 132.722 13.7464 132.577 14.0142C132.436 14.2789 132.363 14.5697 132.36 14.8867V15.87C132.36 16.2824 132.436 16.6364 132.586 16.9318C132.737 17.2242 132.948 17.4489 133.219 17.6058C133.49 17.7597 133.807 17.8366 134.17 17.8366C134.413 17.8366 134.633 17.8028 134.83 17.7351C135.027 17.6643 135.198 17.5612 135.342 17.4258C135.487 17.2904 135.596 17.1226 135.67 16.9226L137.231 17.098C137.132 17.5104 136.944 17.8705 136.667 18.1783C136.393 18.483 136.043 18.7199 135.615 18.8892C135.187 19.0554 134.698 19.1385 134.147 19.1385ZM144.058 13.7834L142.535 13.9496C142.491 13.7957 142.416 13.651 142.308 13.5156C142.204 13.3802 142.062 13.271 141.884 13.1879C141.705 13.1048 141.487 13.0632 141.228 13.0632C140.88 13.0632 140.588 13.1386 140.351 13.2894C140.117 13.4402 140.002 13.6357 140.005 13.8757C140.002 14.0819 140.077 14.2496 140.231 14.3789C140.388 14.5082 140.646 14.6143 141.007 14.6974L142.216 14.956C142.887 15.1006 143.386 15.3299 143.712 15.6438C144.041 15.9577 144.207 16.3686 144.21 16.8764C144.207 17.3227 144.076 17.7166 143.818 18.0582C143.563 18.3968 143.207 18.6615 142.752 18.8523C142.296 19.0431 141.773 19.1385 141.182 19.1385C140.314 19.1385 139.615 18.9569 139.086 18.5938C138.557 18.2275 138.241 17.7182 138.14 17.0657L139.769 16.9087C139.843 17.2288 140 17.4704 140.24 17.6335C140.48 17.7966 140.793 17.8782 141.177 17.8782C141.574 17.8782 141.893 17.7966 142.133 17.6335C142.376 17.4704 142.498 17.2688 142.498 17.0288C142.498 16.8256 142.419 16.6579 142.262 16.5256C142.108 16.3932 141.868 16.2917 141.542 16.2209L140.333 15.967C139.652 15.8254 139.149 15.5869 138.823 15.2514C138.497 14.9129 138.335 14.4851 138.338 13.968C138.335 13.531 138.454 13.1525 138.694 12.8324C138.937 12.5092 139.274 12.2599 139.705 12.0845C140.139 11.906 140.639 11.8168 141.205 11.8168C142.036 11.8168 142.69 11.9937 143.167 12.3477C143.647 12.7016 143.944 13.1802 144.058 13.7834Z" fill="#2E74E7"/>
</g>
</g>
<defs>
<filter id="filter0_i_1_2083" x="0" y="-1" width="155" height="29" filterUnits="userSpaceOnUse" color-interpolation-filters="sRGB">
<feFlood flood-opacity="0" result="BackgroundImageFix"/>
<feBlend mode="normal" in="SourceGraphic" in2="BackgroundImageFix" result="shape"/>
<feColorMatrix in="SourceAlpha" type="matrix" values="0 0 0 0 0 0 0 0 0 0 0 0 0 0 0 0 0 0 127 0" result="hardAlpha"/>
<feOffset dy="-1"/>
<feGaussianBlur stdDeviation="2"/>
<feComposite in2="hardAlpha" operator="arithmetic" k2="-1" k3="1"/>
<feColorMatrix type="matrix" values="0 0 0 0 0 0 0 0 0 0 0 0 0 0 0 0 0 0 0.05 0"/>
<feBlend mode="normal" in2="shape" result="effect1_innerShadow_1_2083"/>
</filter>
<clipPath id="clip0_1_2083">
<rect width="155" height="28" rx="14" fill="white"/>
</clipPath>
<clipPath id="clip1_1_2083">
<rect width="16" height="16" fill="white" transform="translate(10 6)"/>
</clipPath>
</defs>
</svg>
