<svg xmlns="http://www.w3.org/2000/svg" width="18" height="19" viewBox="0 0 18 19" fill="none">
<path d="M13.9923 9.31086L10.4844 8.01852L9.1892 4.50781C9.09011 4.23906 8.911 4.00716 8.67603 3.84336C8.44105 3.67955 8.1615 3.59173 7.87506 3.59173C7.58863 3.59173 7.30908 3.67955 7.0741 3.84336C6.83912 4.00716 6.66001 4.23906 6.56092 4.50781L5.26858 8.01852L1.75788 9.31086C1.48913 9.40995 1.25722 9.58906 1.09342 9.82404C0.929617 10.059 0.841797 10.3386 0.841797 10.625C0.841797 10.9114 0.929617 11.191 1.09342 11.426C1.25722 11.6609 1.48913 11.84 1.75788 11.9391L5.26577 13.2315L6.56092 16.7422C6.66001 17.0109 6.83912 17.2428 7.0741 17.4066C7.30908 17.5704 7.58863 17.6583 7.87506 17.6583C8.1615 17.6583 8.44105 17.5704 8.67603 17.4066C8.911 17.2428 9.09011 17.0109 9.1892 16.7422L10.4815 13.2343L13.9923 11.9391C14.261 11.84 14.4929 11.6609 14.6567 11.426C14.8205 11.191 14.9083 10.9114 14.9083 10.625C14.9083 10.3386 14.8205 10.059 14.6567 9.82404C14.4929 9.58906 14.261 9.40995 13.9923 9.31086ZM9.7735 11.6945C9.58336 11.7644 9.41069 11.8748 9.26744 12.0181C9.12418 12.1613 9.01376 12.334 8.94381 12.5241L7.87506 15.4259L6.80561 12.5234C6.73565 12.3335 6.6253 12.161 6.48218 12.0179C6.33905 11.8748 6.16656 11.7644 5.97663 11.6945L3.07413 10.625L5.97663 9.55555C6.16656 9.48559 6.33905 9.37524 6.48218 9.23211C6.6253 9.08899 6.73565 8.9165 6.80561 8.72656L7.87506 5.82406L8.94452 8.72656C9.01446 8.9167 9.12488 9.08937 9.26814 9.23263C9.41139 9.37588 9.58407 9.48631 9.7742 9.55625L12.676 10.625L9.7735 11.6945ZM9.84381 3.3125C9.84381 3.08872 9.93271 2.87411 10.0909 2.71588C10.2492 2.55765 10.4638 2.46875 10.6876 2.46875H11.5313V1.625C11.5313 1.40122 11.6202 1.18661 11.7784 1.02838C11.9367 0.870145 12.1513 0.78125 12.3751 0.78125C12.5988 0.78125 12.8134 0.870145 12.9717 1.02838C13.1299 1.18661 13.2188 1.40122 13.2188 1.625V2.46875H14.0626C14.2863 2.46875 14.5009 2.55765 14.6592 2.71588C14.8174 2.87411 14.9063 3.08872 14.9063 3.3125C14.9063 3.53628 14.8174 3.75089 14.6592 3.90912C14.5009 4.06736 14.2863 4.15625 14.0626 4.15625H13.2188V5C13.2188 5.22378 13.1299 5.43839 12.9717 5.59662C12.8134 5.75486 12.5988 5.84375 12.3751 5.84375C12.1513 5.84375 11.9367 5.75486 11.7784 5.59662C11.6202 5.43839 11.5313 5.22378 11.5313 5V4.15625H10.6876C10.4638 4.15625 10.2492 4.06736 10.0909 3.90912C9.93271 3.75089 9.84381 3.53628 9.84381 3.3125ZM17.7188 6.6875C17.7188 6.91128 17.6299 7.12589 17.4717 7.28412C17.3134 7.44236 17.0988 7.53125 16.8751 7.53125H16.5938V7.8125C16.5938 8.03628 16.5049 8.25089 16.3467 8.40912C16.1884 8.56736 15.9738 8.65625 15.7501 8.65625C15.5263 8.65625 15.3117 8.56736 15.1534 8.40912C14.9952 8.25089 14.9063 8.03628 14.9063 7.8125V7.53125H14.6251C14.4013 7.53125 14.1867 7.44236 14.0284 7.28412C13.8702 7.12589 13.7813 6.91128 13.7813 6.6875C13.7813 6.46372 13.8702 6.24911 14.0284 6.09088C14.1867 5.93265 14.4013 5.84375 14.6251 5.84375H14.9063V5.5625C14.9063 5.33872 14.9952 5.12411 15.1534 4.96588C15.3117 4.80765 15.5263 4.71875 15.7501 4.71875C15.9738 4.71875 16.1884 4.80765 16.3467 4.96588C16.5049 5.12411 16.5938 5.33872 16.5938 5.5625V5.84375H16.8751C17.0988 5.84375 17.3134 5.93265 17.4717 6.09088C17.6299 6.24911 17.7188 6.46372 17.7188 6.6875Z" fill="white"/>
</svg>