<svg width="22" height="22" viewBox="0 0 22 22" fill="none" xmlns="http://www.w3.org/2000/svg">
<g id="Toolbox">
<path id="Vector" d="M19.25 5.5H15.125V4.8125C15.125 4.26549 14.9077 3.74089 14.5209 3.35409C14.1341 2.9673 13.6095 2.75 13.0625 2.75H8.9375C8.39049 2.75 7.86589 2.9673 7.47909 3.35409C7.0923 3.74089 6.875 4.26549 6.875 4.8125V5.5H2.75C2.38533 5.5 2.03559 5.64487 1.77773 5.90273C1.51987 6.16059 1.375 6.51033 1.375 6.875V9.28125C1.375 9.37242 1.41122 9.45985 1.47568 9.52432C1.54015 9.58878 1.62758 9.625 1.71875 9.625H5.5V8.2732C5.49717 8.09548 5.56185 7.92331 5.68099 7.79141C5.80013 7.65951 5.96486 7.57771 6.14195 7.5625C6.23599 7.55626 6.33031 7.56941 6.41906 7.60116C6.5078 7.6329 6.58906 7.68255 6.65781 7.74702C6.72655 7.8115 6.78131 7.88942 6.81867 7.97594C6.85603 8.06247 6.87521 8.15575 6.875 8.25V9.625H15.125V8.2732C15.1222 8.09548 15.1869 7.92331 15.306 7.79141C15.4251 7.65951 15.5899 7.57771 15.767 7.5625C15.861 7.55626 15.9553 7.56941 16.0441 7.60116C16.1328 7.6329 16.2141 7.68255 16.2828 7.74702C16.3516 7.8115 16.4063 7.88942 16.4437 7.97594C16.481 8.06247 16.5002 8.15575 16.5 8.25V9.625H20.2812C20.3724 9.625 20.4599 9.58878 20.5243 9.52432C20.5888 9.45985 20.625 9.37242 20.625 9.28125V6.875C20.625 6.51033 20.4801 6.16059 20.2223 5.90273C19.9644 5.64487 19.6147 5.5 19.25 5.5ZM13.75 5.5H8.25V4.8125C8.25 4.63016 8.32243 4.4553 8.45136 4.32636C8.5803 4.19743 8.75516 4.125 8.9375 4.125H13.0625C13.2448 4.125 13.4197 4.19743 13.5486 4.32636C13.6776 4.4553 13.75 4.63016 13.75 4.8125V5.5ZM20.625 11.3438V16.5C20.625 16.8647 20.4801 17.2144 20.2223 17.4723C19.9644 17.7301 19.6147 17.875 19.25 17.875H2.75C2.38533 17.875 2.03559 17.7301 1.77773 17.4723C1.51987 17.2144 1.375 16.8647 1.375 16.5V11.3438C1.375 11.2526 1.41122 11.1651 1.47568 11.1007C1.54015 11.0362 1.62758 11 1.71875 11H5.5V12.375C5.49979 12.4692 5.51897 12.5625 5.55633 12.6491C5.59369 12.7356 5.64845 12.8135 5.71719 12.878C5.78594 12.9424 5.8672 12.9921 5.95594 13.0238C6.04469 13.0556 6.13901 13.0687 6.23305 13.0625C6.41014 13.0473 6.57487 12.9655 6.69401 12.8336C6.81315 12.7017 6.87783 12.5295 6.875 12.3518V11H15.125V12.375C15.1248 12.4692 15.144 12.5625 15.1813 12.6491C15.2187 12.7356 15.2734 12.8135 15.3422 12.878C15.4109 12.9424 15.4922 12.9921 15.5809 13.0238C15.6697 13.0556 15.764 13.0687 15.858 13.0625C16.0348 13.0473 16.1993 12.9658 16.3184 12.8342C16.4375 12.7027 16.5024 12.5309 16.5 12.3535V11H20.2812C20.3724 11 20.4599 11.0362 20.5243 11.1007C20.5888 11.1651 20.625 11.2526 20.625 11.3438Z" fill="#1A5BC5"/>
</g>
</svg>
