<svg width="124" height="44" viewBox="0 0 124 44" fill="none" xmlns="http://www.w3.org/2000/svg">
<rect width="124" height="44" rx="12" fill="#FFF5EC"/>
<path d="M32.0486 21.7619L21.5486 33.0119C21.4374 33.1306 21.2905 33.21 21.1302 33.2379C20.9698 33.2659 20.8048 33.2409 20.6599 33.1668C20.515 33.0928 20.3981 32.9736 20.3269 32.8272C20.2557 32.6809 20.2341 32.5154 20.2652 32.3556L21.6396 25.481L16.2367 23.4522C16.1207 23.4088 16.0172 23.3373 15.9356 23.2442C15.8539 23.151 15.7966 23.0391 15.7687 22.9184C15.7409 22.7977 15.7433 22.6719 15.7759 22.5524C15.8085 22.4329 15.8702 22.3233 15.9555 22.2335L26.4555 10.9835C26.5668 10.8647 26.7136 10.7854 26.874 10.7574C27.0343 10.7295 27.1993 10.7544 27.3442 10.8285C27.4891 10.9026 27.606 11.0218 27.6772 11.1681C27.7484 11.3145 27.7701 11.48 27.7389 11.6397L26.3608 18.5219L31.7636 20.5478C31.8788 20.5915 31.9814 20.6629 32.0625 20.7557C32.1435 20.8485 32.2005 20.9598 32.2283 21.0798C32.2561 21.1998 32.2539 21.3248 32.2219 21.4438C32.1899 21.5627 32.1291 21.672 32.0449 21.7619H32.0486Z" fill="url(#paint0_linear_1_2044)"/>
<path d="M54.867 16.3636H56.975V23.9659C56.975 24.7992 56.778 25.5322 56.3841 26.1648C55.9939 26.7973 55.4447 27.2917 54.7363 27.6477C54.028 28 53.2004 28.1761 52.2534 28.1761C51.3026 28.1761 50.4731 28 49.7647 27.6477C49.0564 27.2917 48.5072 26.7973 48.117 26.1648C47.7269 25.5322 47.5318 24.7992 47.5318 23.9659V16.3636H49.6397V23.7898C49.6397 24.2746 49.7458 24.7064 49.9579 25.0852C50.1738 25.464 50.4769 25.7614 50.867 25.9773C51.2572 26.1894 51.7193 26.2955 52.2534 26.2955C52.7875 26.2955 53.2496 26.1894 53.6397 25.9773C54.0337 25.7614 54.3367 25.464 54.5488 25.0852C54.761 24.7064 54.867 24.2746 54.867 23.7898V16.3636ZM58.9353 31.2727V19.2727H60.958V20.7159H61.0773C61.1834 20.5038 61.333 20.2784 61.5262 20.0398C61.7193 19.7973 61.9807 19.5909 62.3103 19.4205C62.6398 19.2462 63.0603 19.1591 63.5716 19.1591C64.2459 19.1591 64.8538 19.3314 65.3955 19.6761C65.9409 20.017 66.3728 20.5227 66.6909 21.1932C67.0129 21.8598 67.1739 22.678 67.1739 23.6477C67.1739 24.6061 67.0167 25.4205 66.7023 26.0909C66.3879 26.7614 65.9599 27.2727 65.4182 27.625C64.8765 27.9773 64.2629 28.1534 63.5773 28.1534C63.0773 28.1534 62.6625 28.0701 62.333 27.9034C62.0034 27.7367 61.7383 27.536 61.5375 27.3011C61.3406 27.0625 61.1872 26.8371 61.0773 26.625H60.9921V31.2727H58.9353ZM60.9523 23.6364C60.9523 24.2008 61.0318 24.6951 61.1909 25.1193C61.3538 25.5436 61.5868 25.875 61.8898 26.1136C62.1966 26.3485 62.5678 26.4659 63.0034 26.4659C63.458 26.4659 63.8387 26.3447 64.1455 26.1023C64.4523 25.8561 64.6834 25.5208 64.8387 25.0966C64.9978 24.6686 65.0773 24.1818 65.0773 23.6364C65.0773 23.0947 64.9997 22.6136 64.8443 22.1932C64.689 21.7727 64.458 21.4432 64.1512 21.2045C63.8443 20.9659 63.4618 20.8466 63.0034 20.8466C62.564 20.8466 62.1909 20.9621 61.8841 21.1932C61.5773 21.4242 61.3443 21.7481 61.1853 22.1648C61.03 22.5814 60.9523 23.072 60.9523 23.6364ZM72.4907 31.4545C71.7521 31.4545 71.1176 31.3542 70.5873 31.1534C70.057 30.9564 69.6309 30.6913 69.3089 30.358C68.9869 30.0246 68.7634 29.6553 68.6384 29.25L70.4907 28.8011C70.574 28.9716 70.6953 29.1402 70.8543 29.3068C71.0134 29.4773 71.2275 29.6174 71.4964 29.7273C71.7691 29.8409 72.1119 29.8977 72.5248 29.8977C73.1081 29.8977 73.5911 29.7557 73.9737 29.4716C74.3562 29.1913 74.5475 28.7292 74.5475 28.0852V26.4318H74.4453C74.3392 26.6439 74.1839 26.8617 73.9793 27.0852C73.7786 27.3087 73.5115 27.4962 73.1782 27.6477C72.8487 27.7992 72.4339 27.875 71.9339 27.875C71.2634 27.875 70.6555 27.7178 70.11 27.4034C69.5684 27.0852 69.1365 26.6117 68.8146 25.983C68.4964 25.3504 68.3373 24.5587 68.3373 23.608C68.3373 22.6496 68.4964 21.8409 68.8146 21.1818C69.1365 20.5189 69.5703 20.017 70.1157 19.6761C70.6612 19.3314 71.2691 19.1591 71.9396 19.1591C72.4509 19.1591 72.8714 19.2462 73.2009 19.4205C73.5343 19.5909 73.7994 19.7973 73.9964 20.0398C74.1934 20.2784 74.343 20.5038 74.4453 20.7159H74.5589V19.2727H76.5873V28.142C76.5873 28.8883 76.4093 29.5057 76.0532 29.9943C75.6972 30.483 75.2104 30.8485 74.593 31.0909C73.9756 31.3333 73.2748 31.4545 72.4907 31.4545ZM72.5078 26.2614C72.9434 26.2614 73.3146 26.1553 73.6214 25.9432C73.9282 25.7311 74.1612 25.4261 74.3203 25.0284C74.4793 24.6307 74.5589 24.1534 74.5589 23.5966C74.5589 23.0473 74.4793 22.5663 74.3203 22.1534C74.165 21.7405 73.9339 21.4205 73.6271 21.1932C73.324 20.9621 72.9509 20.8466 72.5078 20.8466C72.0494 20.8466 71.6668 20.9659 71.36 21.2045C71.0532 21.4432 70.8222 21.7708 70.6668 22.1875C70.5115 22.6004 70.4339 23.0701 70.4339 23.5966C70.4339 24.1307 70.5115 24.5985 70.6668 25C70.8259 25.3977 71.0589 25.7083 71.3657 25.9318C71.6763 26.1515 72.057 26.2614 72.5078 26.2614ZM78.4553 28V19.2727H80.4496V20.7273H80.5405C80.6996 20.2235 80.9723 19.8352 81.3587 19.5625C81.7488 19.286 82.1939 19.1477 82.6939 19.1477C82.8075 19.1477 82.9344 19.1534 83.0746 19.1648C83.2185 19.1723 83.3378 19.1856 83.4325 19.2045V21.0966C83.3454 21.0663 83.2072 21.0398 83.0178 21.017C82.8322 20.9905 82.6522 20.9773 82.478 20.9773C82.103 20.9773 81.7659 21.0587 81.4666 21.2216C81.1712 21.3807 80.9382 21.6023 80.7678 21.8864C80.5973 22.1705 80.5121 22.4981 80.5121 22.8693V28H78.4553ZM86.9141 28.1761C86.3611 28.1761 85.863 28.0777 85.4198 27.8807C84.9804 27.6799 84.6319 27.3845 84.3743 26.9943C84.1206 26.6042 83.9937 26.1231 83.9937 25.5511C83.9937 25.0587 84.0846 24.6515 84.2664 24.3295C84.4482 24.0076 84.6963 23.75 85.0107 23.5568C85.3251 23.3636 85.6793 23.2178 86.0732 23.1193C86.4709 23.017 86.8819 22.9432 87.3062 22.8977C87.8175 22.8447 88.2323 22.7973 88.5505 22.7557C88.8687 22.7102 89.0997 22.642 89.2437 22.5511C89.3914 22.4564 89.4653 22.3106 89.4653 22.1136V22.0795C89.4653 21.6515 89.3384 21.3201 89.0846 21.0852C88.8308 20.8504 88.4653 20.733 87.988 20.733C87.4842 20.733 87.0846 20.8428 86.7891 21.0625C86.4975 21.2822 86.3005 21.5417 86.1982 21.8409L84.2778 21.5682C84.4293 21.0379 84.6793 20.5947 85.0278 20.2386C85.3762 19.8788 85.8024 19.6098 86.3062 19.4318C86.81 19.25 87.3668 19.1591 87.9766 19.1591C88.3971 19.1591 88.8156 19.2083 89.2323 19.3068C89.649 19.4053 90.0297 19.5682 90.3743 19.7955C90.719 20.0189 90.9956 20.3239 91.2039 20.7102C91.416 21.0966 91.5221 21.5795 91.5221 22.1591V28H89.5448V26.8011H89.4766C89.3516 27.0436 89.1755 27.2708 88.9482 27.483C88.7247 27.6913 88.4425 27.8598 88.1016 27.9886C87.7645 28.1136 87.3687 28.1761 86.9141 28.1761ZM87.4482 26.6648C87.8611 26.6648 88.219 26.5833 88.5221 26.4205C88.8251 26.2538 89.0581 26.0341 89.2209 25.7614C89.3876 25.4886 89.4709 25.1913 89.4709 24.8693V23.8409C89.4065 23.8939 89.2967 23.9432 89.1414 23.9886C88.9899 24.0341 88.8194 24.0739 88.63 24.108C88.4406 24.142 88.2531 24.1723 88.0675 24.1989C87.8819 24.2254 87.7209 24.2481 87.5846 24.267C87.2778 24.3087 87.0031 24.3769 86.7607 24.4716C86.5183 24.5663 86.327 24.6989 86.1868 24.8693C86.0467 25.036 85.9766 25.2519 85.9766 25.517C85.9766 25.8958 86.1149 26.1818 86.3914 26.375C86.6679 26.5682 87.0202 26.6648 87.4482 26.6648ZM96.5889 28.1534C95.9033 28.1534 95.2897 27.9773 94.748 27.625C94.2063 27.2727 93.7783 26.7614 93.4639 26.0909C93.1495 25.4205 92.9923 24.6061 92.9923 23.6477C92.9923 22.678 93.1514 21.8598 93.4696 21.1932C93.7915 20.5227 94.2253 20.017 94.7707 19.6761C95.3162 19.3314 95.9241 19.1591 96.5946 19.1591C97.1059 19.1591 97.5264 19.2462 97.8559 19.4205C98.1855 19.5909 98.4468 19.7973 98.64 20.0398C98.8332 20.2784 98.9828 20.5038 99.0889 20.7159H99.1741V16.3636H101.237V28H99.2139V26.625H99.0889C98.9828 26.8371 98.8294 27.0625 98.6287 27.3011C98.4279 27.536 98.1628 27.7367 97.8332 27.9034C97.5037 28.0701 97.0889 28.1534 96.5889 28.1534ZM97.1628 26.4659C97.5984 26.4659 97.9696 26.3485 98.2764 26.1136C98.5832 25.875 98.8162 25.5436 98.9753 25.1193C99.1343 24.6951 99.2139 24.2008 99.2139 23.6364C99.2139 23.072 99.1343 22.5814 98.9753 22.1648C98.82 21.7481 98.5889 21.4242 98.2821 21.1932C97.979 20.9621 97.6059 20.8466 97.1628 20.8466C96.7044 20.8466 96.3218 20.9659 96.015 21.2045C95.7082 21.4432 95.4772 21.7727 95.3218 22.1932C95.1665 22.6136 95.0889 23.0947 95.0889 23.6364C95.0889 24.1818 95.1665 24.6686 95.3218 25.0966C95.4809 25.5208 95.7139 25.8561 96.0207 26.1023C96.3313 26.3447 96.712 26.4659 97.1628 26.4659ZM107.052 28.1705C106.177 28.1705 105.421 27.9886 104.785 27.625C104.152 27.2576 103.666 26.7386 103.325 26.0682C102.984 25.3939 102.813 24.6004 102.813 23.6875C102.813 22.7898 102.984 22.0019 103.325 21.3239C103.669 20.642 104.151 20.1117 104.768 19.733C105.385 19.3504 106.111 19.1591 106.944 19.1591C107.482 19.1591 107.99 19.2462 108.467 19.4205C108.948 19.5909 109.372 19.8561 109.74 20.2159C110.111 20.5758 110.402 21.0341 110.615 21.5909C110.827 22.1439 110.933 22.803 110.933 23.5682V24.1989H103.779V22.8125H108.961C108.957 22.4186 108.872 22.0682 108.705 21.7614C108.539 21.4508 108.306 21.2064 108.007 21.0284C107.711 20.8504 107.366 20.7614 106.972 20.7614C106.552 20.7614 106.183 20.8636 105.865 21.0682C105.546 21.2689 105.298 21.5341 105.12 21.8636C104.946 22.1894 104.857 22.5473 104.853 22.9375V24.1477C104.853 24.6553 104.946 25.0909 105.132 25.4545C105.317 25.8144 105.577 26.0909 105.91 26.2841C106.243 26.4735 106.633 26.5682 107.08 26.5682C107.38 26.5682 107.651 26.5265 107.893 26.4432C108.135 26.3561 108.346 26.2292 108.524 26.0625C108.702 25.8958 108.836 25.6894 108.927 25.4432L110.847 25.6591C110.726 26.1667 110.495 26.6098 110.154 26.9886C109.817 27.3636 109.385 27.6553 108.859 27.8636C108.332 28.0682 107.73 28.1705 107.052 28.1705Z" fill="#F24618"/>
<defs>
<linearGradient id="paint0_linear_1_2044" x1="23.9986" y1="10.7463" x2="23.9986" y2="33.2491" gradientUnits="userSpaceOnUse">
<stop stop-color="#FAA11C"/>
<stop offset="1" stop-color="#FA1C44"/>
</linearGradient>
</defs>
</svg>
