<svg width="22" height="22" viewBox="0 0 22 22" fill="none" xmlns="http://www.w3.org/2000/svg">
<g id="Video">
<path id="Vector" d="M18.5625 3.09375H3.4375C2.98166 3.09375 2.54449 3.27483 2.22216 3.59716C1.89983 3.91949 1.71875 4.35666 1.71875 4.8125V13.75C1.71875 14.2058 1.89983 14.643 2.22216 14.9653C2.54449 15.2877 2.98166 15.4688 3.4375 15.4688H18.5625C19.0183 15.4688 19.4555 15.2877 19.7778 14.9653C20.1002 14.643 20.2812 14.2058 20.2812 13.75V4.8125C20.2812 4.35666 20.1002 3.91949 19.7778 3.59716C19.4555 3.27483 19.0183 3.09375 18.5625 3.09375ZM18.2188 13.4062H3.78125V5.15625H18.2188V13.4062ZM20.2812 17.875C20.2812 18.1485 20.1726 18.4108 19.9792 18.6042C19.7858 18.7976 19.5235 18.9062 19.25 18.9062H2.75C2.4765 18.9062 2.21419 18.7976 2.0208 18.6042C1.8274 18.4108 1.71875 18.1485 1.71875 17.875C1.71875 17.6015 1.8274 17.3392 2.0208 17.1458C2.21419 16.9524 2.4765 16.8438 2.75 16.8438H19.25C19.5235 16.8438 19.7858 16.9524 19.9792 17.1458C20.1726 17.3392 20.2812 17.6015 20.2812 17.875ZM8.9375 11V7.5625C8.93744 7.37839 8.98667 7.19762 9.08008 7.03896C9.17348 6.8803 9.30766 6.74954 9.46868 6.66026C9.6297 6.57098 9.81168 6.52644 9.99573 6.53126C10.1798 6.53607 10.3592 6.59008 10.5153 6.68766L13.2653 8.40641C13.4138 8.49907 13.5362 8.628 13.6211 8.78105C13.706 8.9341 13.7506 9.10623 13.7506 9.28125C13.7506 9.45627 13.706 9.6284 13.6211 9.78145C13.5362 9.9345 13.4138 10.0634 13.2653 10.1561L10.5153 11.8748C10.3592 11.9724 10.1798 12.0264 9.99573 12.0312C9.81168 12.0361 9.6297 11.9915 9.46868 11.9022C9.30766 11.813 9.17348 11.6822 9.08008 11.5235C8.98667 11.3649 8.93744 11.1841 8.9375 11Z" fill="#5F666C"/>
</g>
</svg>
